<?xml version="1.0" standalone="no"?>
<!DOCTYPE svg PUBLIC "-//W3C//DTD SVG 1.1//EN" "http://www.w3.org/Graphics/SVG/1.1/DTD/svg11.dtd" >
<svg xmlns="http://www.w3.org/2000/svg" xmlns:xlink="http://www.w3.org/1999/xlink" version="1.1">
<metadata></metadata>
<defs>
<font id="posterizerkguploaded_file" horiz-adv-x="1212" >
<font-face units-per-em="2048" ascent="1579" descent="-469" />
<missing-glyph horiz-adv-x="460" />
<glyph horiz-adv-x="0" />
<glyph unicode="&#xd;" horiz-adv-x="2242" d="M53 748q0 94 7 175q8 89 31 168q24 82 70 154q48 75 124 137q103 85 224 112q126 28 245 28q49 0 119 -9q59 -7 114 -18h526q126 0 220 -25q90 -24 149 -64t94 -90q35 -51 52 -102q15 -47 20 -97q4 -41 4 -77q0 -87 -28 -154q-27 -64 -71 -108q-41 -41 -99 -65t-105 -31 l219 -387h191v-295h-430l-404 711h-4v-416h131v-295h-459q-105 -27 -239 -27q-367 0 -534 202t-167 573zM463 680q0 -70 12 -140t45 -127t89 -91q58 -35 145 -35q47 0 92 6q46 6 86 24v865l-77 17q-42 9 -101 9q-147 0 -219 -99t-72 -294v-135zM1321 827h156q56 0 92 19 q34 18 53 46q20 30 24 59q5 35 5 61q0 40 -7 72q-8 34 -27 60q-21 27 -53 41q-34 15 -89 15h-154v-373z" />
<glyph unicode=" "  horiz-adv-x="460" />
<glyph unicode="&#x09;" horiz-adv-x="460" />
<glyph unicode="&#xa0;" horiz-adv-x="460" />
<glyph unicode="!" horiz-adv-x="634" d="M133 1026v469h369v-469l-74 -526h-221zM137 0v342h361v-342h-361z" />
<glyph unicode="&#x22;" horiz-adv-x="892" d="M102 1495h301l-41 -500h-217zM489 1495h302l-43 -500h-218z" />
<glyph unicode="#" horiz-adv-x="1404" d="M98 360v267h197l45 215h-242v264h297l78 362h268l-75 -362h225l76 362h268l-76 -362h144v-264h-199l-45 -215h244v-267h-299l-76 -360h-271l76 360h-223l-38 -181l-36 -179h-272l76 360h-142zM565 627h226l45 215h-226z" />
<glyph unicode="$" horiz-adv-x="1210" d="M49 1057q0 69 25 138q24 66 79 121q54 54 138 93q81 38 203 53v107h223v-105q43 -4 90 -12q44 -7 94 -20q46 -12 91 -29q48 -18 79 -37l-90 -281q-91 46 -150 62q-58 16 -114 22v-272l167 -57q78 -28 144 -76q62 -46 102 -121q39 -74 39 -190q0 -63 -25 -129 q-25 -67 -80 -126q-55 -60 -140 -103q-84 -43 -207 -58v-131h-223v125q-138 11 -250 63q-112 53 -181 121l152 264q63 -48 122 -86q60 -39 157 -57v282q-84 23 -167 59q-83 35 -143 85t-98 123q-37 71 -37 172zM389 1073q0 -34 26 -57q24 -21 79 -43v194q-44 -2 -74 -24 q-31 -23 -31 -70zM717 336q53 11 80 41q26 29 26 67q0 31 -10 51t-27 34q-19 15 -34 23t-35 13v-229z" />
<glyph unicode="%" horiz-adv-x="1779" d="M66 1069q0 103 26 174q27 73 75 123q47 48 113 73q62 23 142 23q82 0 145 -23q67 -25 113 -73q48 -51 73 -123t25 -174q0 -103 -26 -175q-26 -73 -74 -124q-45 -48 -112 -73q-62 -23 -140 -23q-160 0 -260 97t-100 298zM362 1069q0 -108 15 -147t43 -39q33 0 45 42 t12 144t-12 144t-45 42t-45 -42q-13 -45 -13 -144zM375 -51l764 1515h247l-759 -1515h-252zM999 340q0 100 27 174t75 123t112 73q62 23 143 23q82 0 145 -23q67 -25 113 -73q48 -51 73 -123t25 -174q0 -103 -26 -175q-26 -73 -74 -124q-45 -48 -112 -73q-62 -23 -140 -23 q-160 0 -260 97q-101 98 -101 298zM1296 340q0 -108 15 -147t43 -39q33 0 45 42t12 144t-12 144t-45 42t-45 -42q-13 -46 -13 -144z" />
<glyph unicode="&#x26;" horiz-adv-x="1705" d="M66 424q0 55 11 106q13 60 45 110q38 60 93 109q61 55 158 105q-56 66 -94 133q-41 73 -41 156q0 100 36 166q38 70 103 113q67 44 154 65q84 20 194 20q93 0 174 -22q78 -21 141 -67q61 -44 95 -106t34 -143q0 -65 -20 -111q-22 -51 -56 -89q-38 -42 -86 -79 q-51 -39 -110 -77l190 -192q24 28 66 97q49 80 94 238h336l41 -295h-168q-24 -72 -64 -143q-42 -75 -83 -123l98 -100h215v-295h-410l-157 145q-53 -48 -110 -85q-51 -33 -109 -53q-56 -19 -114 -27q-70 -9 -126 -9q-115 0 -211 30t-168 87t-112 142q-39 82 -39 194z M440 453q0 -74 54 -125q52 -49 151 -49q49 0 98 24q48 23 97 66l-265 270q-58 -33 -98 -82q-37 -46 -37 -104zM612 1178q0 -6 2 -22q1 -7 11 -27q5 -10 26 -38q20 -26 51 -59q50 24 77 56q28 33 28 65q0 35 -23 66q-22 30 -84 30q-28 0 -57 -16q-31 -17 -31 -55z" />
<glyph unicode="'" horiz-adv-x="505" d="M102 1495h301l-41 -500h-217z" />
<glyph unicode="(" horiz-adv-x="706" d="M123 303v451q0 203 38 347q37 140 107 233q69 92 165 139q94 46 212 63v-256l-70 -47q-33 -23 -61 -80q-26 -54 -43 -155q-16 -96 -16 -269v-401q0 -174 16 -270q17 -100 43 -154q28 -57 61 -80l70 -47v-256q-120 15 -212 62q-98 50 -165 139q-70 93 -107 234 q-38 144 -38 347z" />
<glyph unicode=")" horiz-adv-x="706" d="M61 -223l70 47q35 24 62 80q26 54 43 154q16 96 16 270v401q0 173 -16 269q-17 101 -43 155q-27 56 -62 80l-70 47v256q118 -17 212 -63q96 -47 165 -139q72 -95 108 -233q38 -144 38 -347v-451q0 -203 -38 -347q-36 -138 -108 -233q-69 -91 -165 -140q-92 -47 -212 -62 v256z" />
<glyph unicode="*" horiz-adv-x="1067" d="M61 1061l84 252l189 -64l84 -57q-5 31 -12 62l-15 63v178h283v-178l-25 -127q11 6 44 29q22 15 46 28l185 66l82 -252l-162 -70h-135q32 -25 53 -45l51 -45l107 -143l-228 -156l-112 150l-45 100q-14 -32 -19 -47l-18 -49l-107 -156l-227 158l98 137l94 86 q-9 1 -28.5 3.5t-29.5 4.5l-56 8z" />
<glyph unicode="+" horiz-adv-x="1251" d="M113 506v280h370v379h295v-379h361v-280h-361v-379h-295v379h-370z" />
<glyph unicode="," horiz-adv-x="630" d="M135 0v342h361v-283q0 -74 -18 -134t-58 -106t-111 -77q-73 -32 -174 -49v155q113 33 115 152h-115z" />
<glyph unicode="-" horiz-adv-x="774" d="M90 502v291h594v-291h-594z" />
<glyph unicode="." horiz-adv-x="630" d="M135 0v342h361v-342h-361z" />
<glyph unicode="/" horiz-adv-x="819" d="M20 0l472 1495h317l-471 -1495h-318z" />
<glyph unicode="0" d="M66 729v10q0 171 26 305q28 142 89 239q63 99 166 156q102 56 259 56t259 -56q103 -57 166 -156q61 -97 89 -239q27 -140 27 -305v-10q0 -165 -27 -305q-28 -142 -89 -239q-62 -98 -166 -155q-103 -57 -259 -57t-259 57q-104 57 -166 155q-61 97 -89 239q-26 134 -26 305 zM461 676q0 -82 3 -154q3 -76 17 -126q16 -56 43 -85q28 -30 80 -30h4q52 0 80 30q27 29 43 85q15 54 18 126t3 154v117q0 81 -3 153q-3 73 -18 125q-16 55 -43 85q-29 32 -80 32h-4q-51 0 -80 -32q-27 -30 -43 -85q-14 -48 -17 -125q-3 -72 -3 -153v-117z" />
<glyph unicode="1" d="M197 0v281h256v833l-250 -61v293l569 141l41 -35v-1171h234v-281h-850z" />
<glyph unicode="2" d="M84 920v60q0 32 2 48q6 129 53 218t118 145q69 55 158 79q91 25 177 25q116 0 212 -31q93 -30 158 -86q64 -55 97 -132q33 -76 33 -169q0 -71 -21 -133q-22 -64 -56 -121t-85 -117l-109 -124l-270 -301h264l31 161h293v-442h-1022l-23 250l500 559q59 66 91 132t32 132 q0 30 -11 52q-12 24 -29 41t-39 28q-20 10 -42 10q-162 0 -162 -227v-68z" />
<glyph unicode="3" d="M76 453l325 20q4 -98 54 -154q49 -55 114 -55q77 0 129 40q54 42 54 136q0 85 -52 139q-51 52 -129 52h-122l-3 276q63 0 109 7q49 7 83 28t52 55q19 36 19 90q0 73 -43 98t-93 25q-54 0 -98 -43q-45 -43 -49 -141h-330q0 136 46 225q47 92 117 145q71 54 157 77 q84 22 166 22q105 0 195 -26q92 -26 153 -76q63 -51 99 -125t36 -168q0 -29 -6 -68q-5 -35 -25 -81q-18 -42 -53 -80t-92 -62v-6q124 -44 184 -141q62 -100 62 -209q0 -98 -32 -185q-31 -85 -99 -151t-175 -104q-108 -38 -258 -38q-133 0 -226 36q-95 37 -154 99 q-62 65 -88 150q-27 89 -27 193z" />
<glyph unicode="4" d="M33 668l549 800h411v-784h148v-260h-148v-143h135v-281h-684v281h189v143h-541zM379 684h254v401h-4l-15 -55z" />
<glyph unicode="5" d="M88 401l336 33q0 -44 14 -73q16 -33 37 -53q23 -21 49 -33q25 -11 51 -11q51 0 84 18q34 19 53 46q18 26 26 66q7 35 7 79q0 38 -8 80q-7 38 -26 69q-18 30 -48 48t-73 18q-42 0 -97 -16t-116 -66l-266 76l75 786h863l14 -411h-281l-18 123h-291l-24 -254q47 28 105 42 q56 13 118 13q119 0 206 -38q85 -37 139 -103q56 -68 79 -154q24 -89 24 -190q0 -262 -143 -392q-145 -131 -406 -131q-83 0 -171 20q-85 19 -152 67q-69 49 -112 131q-44 83 -48 210z" />
<glyph unicode="6" d="M70 719q0 75 8 169q7 84 31 175q24 90 62 165q39 78 103 138q61 58 156 94q93 35 217 35q76 0 141 -13t127 -44q56 -28 109 -84q47 -49 86 -133l-260 -164q-46 88 -99 115q-54 28 -96 28q-60 0 -101 -32q-40 -31 -64 -81q-23 -47 -32 -110q-9 -61 -9 -123q28 29 61 48 q35 20 73 32q37 12 75 18q37 6 69 6q127 0 207 -45t126 -114q44 -65 63 -151q18 -81 18 -154q0 -127 -41 -224q-39 -94 -113 -161q-71 -65 -167 -100q-93 -34 -206 -34q-280 0 -412 183t-132 561zM449 567q0 -52 7 -101q8 -54 25 -97q18 -46 51 -74q34 -29 86 -29q24 0 54 8 q27 7 51 31q23 23 38 62t15 102q0 61 -12 100q-12 40 -32 61q-20 22 -43 29q-29 9 -48 9q-51 0 -98 -27q-48 -28 -94 -74z" />
<glyph unicode="7" d="M70 965l32 503h1041v-258q-69 -91 -129 -203q-60 -113 -108 -241q-45 -121 -73 -251q-28 -131 -28 -234h184v-281h-723v281h170q6 104 33 221q26 114 66 233q41 124 88 230q53 121 104 213h-324l-32 -213h-301z" />
<glyph unicode="8" d="M63 410q0 64 20 119q21 58 52 99q36 47 76 79q41 33 90 61q-106 66 -145 153t-39 171q0 89 34 161q35 75 97 128q63 54 153 84t203 30q126 0 222 -31q91 -29 155 -84q60 -51 91 -123q30 -69 30 -145q0 -92 -48 -172q-47 -78 -155 -139q147 -78 200 -173q52 -94 52 -204 q0 -90 -36 -172t-106 -143q-71 -62 -174 -98t-239 -36q-117 0 -219 31q-99 30 -168 87q-72 60 -108 137q-38 82 -38 180zM426 418q0 -38 18 -65q19 -28 45 -47q25 -18 58 -28t57 -10q35 0 63 7q27 7 53 26q23 17 37 48q13 29 13 77q0 38 -22 67q-22 30 -57 54q-38 27 -73 44 l-71 36q-23 -13 -40 -28q-22 -19 -39 -43q-18 -26 -30 -60t-12 -78zM479 1098q0 -32 18 -57t42 -45q21 -17 53 -34q37 -19 51 -26q50 23 78 60q31 42 31 87q0 59 -35 99q-35 39 -113 39q-65 0 -95 -38q-30 -37 -30 -85z" />
<glyph unicode="9" d="M70 977q0 123 41 222q40 97 112 163q69 63 167 99q93 34 206 34q279 0 412 -183q133 -182 133 -560q0 -75 -8 -169q-7 -84 -31 -175q-22 -86 -63 -165q-40 -79 -103 -139q-61 -58 -156 -94q-93 -35 -217 -35q-71 0 -141 14q-65 13 -127 44q-56 28 -109 84q-47 49 -86 133 l260 164q46 -88 100 -116t95 -28q60 0 101 32q40 31 64 81q24 49 33 111q9 61 9 122q-26 -28 -62 -48q-32 -18 -72 -31q-43 -14 -76 -19q-38 -6 -69 -6q-127 0 -207 45q-77 43 -125 115q-46 68 -64 150q-17 76 -17 155zM434 1001q0 -61 12 -100q12 -38 32 -60q22 -23 43 -30 q26 -8 48 -8q54 0 99 26q48 28 94 74q0 53 -7 102q-7 50 -26 97q-19 46 -52 74q-34 28 -85 28q-23 0 -53 -8q-29 -7 -52 -31q-22 -22 -37 -61q-16 -42 -16 -103z" />
<glyph unicode=":" horiz-adv-x="630" d="M135 0v342h361v-342h-361zM135 682v342h361v-342h-361z" />
<glyph unicode=";" horiz-adv-x="630" d="M135 0v342h361v-281q0 -80 -18 -140q-18 -62 -59 -105q-41 -44 -112 -75q-68 -30 -172 -48v155q115 35 117 152h-117zM135 682v342h361v-342h-361z" />
<glyph unicode="&#x3c;" horiz-adv-x="1091" d="M113 477v318l866 426v-308l-557 -270l557 -266v-324z" />
<glyph unicode="=" horiz-adv-x="1155" d="M113 285v282h929v-282h-929zM113 725v283h929v-283h-929z" />
<glyph unicode="&#x3e;" horiz-adv-x="1091" d="M113 53v307l557 271l-557 266v324l866 -424v-318z" />
<glyph unicode="?" horiz-adv-x="1107" d="M61 1024v264q29 59 84 104q49 41 117 73q58 28 133 44q69 15 135 15q112 0 208 -29q95 -29 164 -84q70 -56 107 -139q38 -85 38 -195q0 -91 -35 -164q-33 -69 -92 -120q-56 -48 -128 -76t-143 -29l-35 -188h-231l-23 395q103 2 161 19q61 18 93 43q31 24 44 57 q12 30 12 61q0 23 -6 50q-6 26 -22 52q-14 23 -45 38q-32 16 -75 16q-44 0 -83 -17t-56 -40l-47 -150h-275zM319 0v342h361v-342h-361z" />
<glyph unicode="@" horiz-adv-x="2002" d="M92 461q0 229 81 408t217 303t317 189q179 64 378 64q186 0 339 -51q151 -50 260 -144q106 -92 167 -225q60 -132 60 -294q0 -129 -40 -256q-41 -129 -117 -234t-189 -171t-256 -66q-57 0 -116 18q-57 17 -101 68q-69 -52 -128 -70q-60 -18 -118 -18q-98 0 -162 32 q-65 33 -106 87q-43 57 -60 126q-18 72 -18 152q0 127 30 246q30 118 97 211q66 92 165 147q98 55 238 55q74 0 133 -26q60 -27 105 -68l194 76l51 -51l-147 -703q-2 -8 -2 -18t5 -20q5 -9 22 -9q28 0 58 15q25 13 52 34q85 72 126 186q40 113 40 238q0 100 -38 194 t-111 164q-71 68 -185 113q-110 43 -254 43q-155 0 -287 -46q-136 -47 -234 -138q-100 -92 -157 -229t-57 -320q0 -140 46 -260q46 -121 135 -210t220 -140t302 -51q71 0 149 12q75 11 153 35q75 23 141 54q67 32 118 71l127 -174q-68 -60 -154 -105q-82 -43 -175 -70 q-80 -23 -186 -37q-94 -12 -186 -12q-230 0 -406 66t-295 182q-120 117 -180 278q-61 163 -61 349zM834 395q0 -34 4 -59q5 -31 14 -52q10 -23 28 -38t44 -15q33 0 62 13q28 12 58 35l101 477q-20 18 -44 27q-22 8 -48 8q-45 0 -85 -30t-70 -82q-28 -49 -47 -125 q-17 -68 -17 -159z" />
<glyph unicode="A" horiz-adv-x="1665" d="M51 0v295h148l301 905h-121v295h897v-295h-121l301 -905h160v-295h-725v295h188l-57 174h-416l-49 -174h168v-295h-674zM678 723h256l-139 477h-7v-88z" />
<glyph unicode="B" horiz-adv-x="1425" d="M61 1200v295h639q178 0 289 -34q113 -35 189 -126q57 -71 67 -137q10 -63 10 -106q0 -76 -42 -148q-42 -73 -117 -102v-4q134 -38 206 -138t72 -229q0 -67 -16 -147q-16 -82 -72 -154q-55 -72 -163 -121q-107 -49 -289 -49h-771v295h138v905h-140zM590 295h192 q112 0 152 42q41 43 41 134q0 93 -51 130q-52 38 -129 38h-205v-344zM590 915h153q87 0 117 42q31 43 31 114q0 76 -48 103q-46 26 -136 26h-117v-285z" />
<glyph unicode="C" horiz-adv-x="1359" d="M53 748q0 94 7 175q8 89 31 168q24 82 70 154q48 75 124 137q103 85 224 112q126 28 245 28q142 -5 263 -33q119 -28 255 -92l-23 -414h-309l-25 201q-32 5 -68 15q-34 9 -93 9q-147 0 -219 -99t-72 -294v-135q0 -70 12 -140t45 -127t89 -91q58 -35 145 -35q47 0 92 6 q46 6 86 24v242h350v-395q-60 -54 -120 -91t-122 -59q-61 -22 -134 -31q-78 -10 -152 -10q-367 0 -534 202t-167 573z" />
<glyph unicode="D" horiz-adv-x="1478" d="M61 1200v295h656q138 0 260 -21q119 -21 225 -104q79 -62 122 -135q45 -76 67 -154q22 -77 28 -163q6 -84 6 -170q0 -78 -8 -168q-7 -78 -33 -164q-25 -83 -70 -154q-48 -75 -124 -137q-93 -77 -201 -101q-107 -24 -250 -24h-676v295h142v905h-144zM594 295h123 q154 0 226 102q73 103 73 297v127q0 379 -301 379h-121v-905z" />
<glyph unicode="E" horiz-adv-x="1298" d="M61 0v295h154v905h-154v295h1135v-455h-293l-22 160h-277v-295h314v-276h-314v-334h291v192h332v-487h-1166z" />
<glyph unicode="F" horiz-adv-x="1267" d="M61 1200v295h1153v-471h-296l-23 176h-281v-309h334v-277h-334v-319h164v-295h-702v295h149v905h-164z" />
<glyph unicode="G" horiz-adv-x="1394" d="M53 748q0 94 7 175q8 89 31 168q24 82 70 154q48 75 124 137q104 86 226 112q129 28 247 28q140 -4 271 -33q127 -28 263 -92l-22 -400h-312l-22 187q-37 6 -77 15q-42 9 -101 9q-148 0 -221 -99q-74 -100 -74 -294v-135q0 -72 13 -140q14 -72 47 -127q35 -58 90 -91 q58 -35 145 -35q47 0 101 6q55 6 95 24v207h-196v277h547v-637q-62 -53 -122 -89q-62 -37 -126 -59q-61 -21 -139 -32q-77 -11 -160 -11q-366 0 -536 202q-169 200 -169 573z" />
<glyph unicode="H" horiz-adv-x="1695" d="M61 0v295h158v905h-147v295h694v-295h-158v-295h492v295h-150v295h684v-295h-145v-905h143v-295h-684v295h152v334h-492v-334h156v-295h-703z" />
<glyph unicode="I" horiz-adv-x="868" d="M66 0v295h178v905h-172v295h731v-295h-170v-905h174v-295h-741z" />
<glyph unicode="J" horiz-adv-x="1048" d="M45 74v422h289l31 -226h20q33 0 55 22q20 20 31 51q10 28 13 63q3 33 3 55v739h-176v295h684v-295h-118v-618q0 -1 -3 -121q-1 -57 -14 -117q-11 -52 -37 -114q-24 -56 -69 -109q-68 -83 -168 -114q-102 -32 -211 -32t-196 29q-82 27 -134 70z" />
<glyph unicode="K" horiz-adv-x="1632" d="M61 0v295h187v905h-178v295h690v-295h-123v-344l297 406q82 110 178 176q95 65 219 65q67 0 128 -11q69 -13 112 -24l-10 -444h-273l-39 160l-59 -99l-178 -245l344 -545h209v-295h-455l-473 748v-453h170v-295h-746z" />
<glyph unicode="L" horiz-adv-x="1269" d="M66 1200v295h716v-295h-172v-905h267v227h331v-522h-1126v295h139v905h-155z" />
<glyph unicode="M" horiz-adv-x="2013" d="M61 0v295h170v905h-149v295h616l322 -704l340 704h584v-295h-152v-905h160v-295h-740v295h191v663l-367 -755h-92l-352 774h-2v-682h184v-295h-713z" />
<glyph unicode="N" horiz-adv-x="1628" d="M63 0v295h154v905h-151v295h475l508 -770l20 -74h6v549h-143v295h643v-295h-141v-1200h-304l-555 842v-547h146v-295h-658z" />
<glyph unicode="O" horiz-adv-x="1507" d="M53 748q0 94 7 175q8 89 31 168q24 82 70 154q48 75 124 137q103 85 224 112q126 28 245 28q118 0 244 -28q122 -27 225 -112q76 -62 124 -137q44 -69 69 -154q23 -79 31 -168q7 -81 7 -175q0 -97 -7 -177q-8 -89 -31 -167q-25 -85 -69 -154q-48 -75 -124 -137 q-101 -83 -217 -111q-119 -29 -238 -29h-29q-118 1 -237 29q-116 27 -217 111q-76 61 -124 136q-46 71 -70 153q-23 79 -31 168q-7 81 -7 178zM463 680q0 -195 72 -294t219 -99t219 99q71 98 71 294v135q0 194 -71 293q-72 100 -219 100t-219 -99t-72 -294v-135z" />
<glyph unicode="P" horiz-adv-x="1347" d="M68 0v295h153v905h-153v295h702q179 0 287 -47q105 -46 162 -118q54 -69 71 -152q17 -85 17 -154q0 -232 -139 -354q-137 -121 -377 -121h-183v-254h176v-295h-716zM608 825h158q42 0 73 17q29 16 46 44q15 25 23 61q7 32 7 71q0 38 -7 69q-8 36 -27 59q-20 25 -57 40 q-34 14 -93 14h-123v-375z" />
<glyph unicode="Q" horiz-adv-x="1523" d="M53 748q0 94 7 175q8 89 31 168q24 82 70 154q48 75 124 137q103 85 224 112q126 28 245 28q118 0 244 -28q122 -27 225 -112q76 -62 124 -137q44 -69 69 -154q23 -79 31 -168q7 -81 7 -175q0 -72 -5 -157q-4 -70 -24 -151q-18 -75 -52 -141q-36 -70 -89 -129l-6 -6 q73 -28 128 -80q54 -51 89 -131l-283 -193l-36 56q-51 75 -118 119q-64 42 -108 57q-5 -1 -41 -6.5t-53 -7.5q-48 -5 -88 -5h-29q-118 1 -237 29q-116 27 -217 111q-76 61 -124 136q-46 71 -70 153q-23 79 -31 168q-7 81 -7 178zM463 680q0 -195 72 -294t219 -99t219 99 q71 98 71 294v135q0 194 -71 293q-72 100 -219 100t-219 -99t-72 -294v-135z" />
<glyph unicode="R" horiz-adv-x="1503" d="M61 0v295h158v905h-149v295h731q125 0 219 -25q90 -24 149 -64q61 -41 95 -90q34 -48 51 -102q15 -47 20 -97q4 -41 4 -77q0 -90 -27 -154q-26 -62 -72 -108q-41 -41 -98 -65t-106 -31l217 -387h191v-295h-430l-402 711h-4v-416h131v-295h-678zM608 827h156q56 0 92 19 q34 18 53 46q20 30 24 59q5 35 5 61q0 40 -7 72q-7 34 -27 60q-21 27 -53 41q-35 15 -89 15h-154v-373z" />
<glyph unicode="S" horiz-adv-x="1298" d="M74 1081q0 87 31 164t103 138t181 98q108 36 268 41q127 0 248 -18q131 -19 269 -56l-17 -457h-295l-37 203q-23 5 -61 10q-29 4 -70 4q-37 0 -70 -4q-44 -5 -71 -15q-32 -12 -55 -33t-23 -54q0 -54 86 -102q84 -47 268 -109q124 -47 203 -96q80 -49 126 -108 q47 -59 65 -125t18 -146q0 -71 -28 -153q-26 -77 -95 -143t-183 -106q-117 -41 -294 -41q-184 0 -316 45q-129 44 -237 132v399h354v-215q39 -23 95 -35q57 -12 104 -12q32 0 74 5q37 4 66 19q30 15 47 38q18 24 18 61q0 42 -34 72q-37 32 -81 52t-97 36t-81 30 q-106 38 -197 83q-87 43 -151 99q-62 54 -97 128q-34 71 -34 171z" />
<glyph unicode="T" horiz-adv-x="1482" d="M49 897v598h1385v-598h-320l-33 303h-145v-905h176v-295h-752v295h187v905h-146l-32 -303h-320z" />
<glyph unicode="U" horiz-adv-x="1611" d="M53 1200v295h670v-295h-141v-493q0 -91 7 -162q8 -77 31 -133q24 -58 70 -90q46 -33 127 -33q80 0 126 34t70 91q23 56 31 133q10 102 11 160v493h-191v295h695v-295h-136v-528q0 -76 -6 -158t-27 -160q-20 -75 -61 -147q-40 -70 -105 -122q-67 -53 -164 -83 q-101 -31 -233 -31h-22q-142 0 -252 31q-105 30 -195 121q-57 57 -93 124q-33 62 -50 133q-16 66 -19 141q-3 72 -3 149v530h-140z" />
<glyph unicode="V" horiz-adv-x="1703" d="M57 1200v295h721v-295h-160l226 -745v-80h6l266 825h-188v295h719v-295h-160l-404 -1200h-501l-373 1200h-152z" />
<glyph unicode="W" horiz-adv-x="2512" d="M57 1200v295h725v-295h-178l230 -776v-80h4l235 856h-174v295h739v-295h-161l227 -776v-80h6l229 856h-190v295h707v-295h-162l-328 -1200h-520l-193 668h-4v-74l-164 -594h-516l-354 1200h-158z" />
<glyph unicode="X" horiz-adv-x="1570" d="M57 0v295h133l375 475l-352 430h-135v295h661v-295h-77l163 -199l152 199h-109v295h635v-295h-164l-329 -422l393 -483h117v-295h-660v295h96l-202 248l-193 -248h135v-295h-639z" />
<glyph unicode="Y" horiz-adv-x="1595" d="M53 1200v295h701v-295h-111l182 -278l179 278h-119v295h665v-295h-161l-385 -588v-317h196v-295h-786v295h200v293l-403 612h-158z" />
<glyph unicode="Z" horiz-adv-x="1273" d="M66 0v250l667 950h-280q-13 -42 -33 -114l-31 -113h-305v522h1081l23 -270l-651 -930h327v254h344v-549h-1142z" />
<glyph unicode="[" horiz-adv-x="753" d="M123 -424v1919h569v-268h-237v-1383h237v-268h-569z" />
<glyph unicode="\" horiz-adv-x="819" d="M10 1495h318l471 -1495h-318z" />
<glyph unicode="]" horiz-adv-x="753" d="M61 -156h236v1383h-236v268h570v-1919h-570v268z" />
<glyph unicode="^" horiz-adv-x="1329" d="M121 700l399 795h277l387 -795h-350l-185 379l-190 -379h-338z" />
<glyph unicode="_" horiz-adv-x="1103" d="M-10 -160h1124v-217h-1124v217z" />
<glyph unicode="`" horiz-adv-x="712" d="M72 1403h338l231 -277h-270z" />
<glyph unicode="a" horiz-adv-x="1110" d="M53 283q0 117 58 186q56 66 142 101q83 33 183 44q111 12 182 13v35q0 48 -16 84q-17 38 -72 38q-23 0 -68 -5q-41 -5 -89 -25l-25 -107h-233l-11 297q134 51 249 75q111 23 220 23q131 0 209 -37t123 -97q44 -59 59 -129q15 -71 15 -136v-362h88v-281h-252q-28 6 -65 40 q-38 35 -58 62q-25 -27 -47 -46q-23 -20 -59 -39q-31 -16 -85 -26q-49 -9 -124 -9q-98 0 -159 29q-60 28 -99 74q-35 40 -51 97q-15 52 -15 101zM403 309q0 -39 26 -57q27 -19 60 -19q46 0 80 20q32 19 49 42v115q-30 0 -68 -3q-37 -3 -70 -14t-54 -29q-23 -20 -23 -55z" />
<glyph unicode="b" horiz-adv-x="1173" d="M37 1202v260l418 72l57 -37v-500q40 22 86 36q47 14 100 14q126 0 208 -42t132 -114q49 -71 70 -169q20 -93 20 -208q0 -92 -21 -185t-77 -170q-56 -78 -148 -125q-93 -48 -235 -48q-57 0 -115 17q-62 18 -118 58q-5 -7 -31 -33q-17 -17 -39 -28h-283v281h91v921h-115z M512 305q26 -19 52 -31q27 -12 61 -12q77 0 106 63q29 64 29 189q0 124 -32 193q-31 67 -116 67q-48 0 -100 -47v-422z" />
<glyph unicode="c" horiz-adv-x="968" d="M41 516q0 110 32 206q31 94 95 167q62 71 158 112t217 41q79 0 173 -15q95 -15 202 -71l-21 -354h-262l-25 166h-53q-48 0 -79 -23q-30 -22 -46 -59q-17 -38 -21 -82q-5 -50 -5 -90q0 -51 10 -94q10 -45 33 -78q22 -32 60 -52t91 -20q60 0 118 27t107 55l103 -254 l-60 -39q-24 -17 -73 -37q-39 -16 -102 -29q-54 -11 -142 -11q-137 0 -232 37t-157 107q-61 68 -91 168q-30 99 -30 222z" />
<glyph unicode="d" horiz-adv-x="1171" d="M41 512q0 101 24 197q24 98 76 170q51 72 139 118q86 45 209 45q52 0 94 -12q38 -11 76 -29v201h-114v260l418 72l57 -37v-1216h113v-281h-310q-22 20 -38 40q-20 24 -31 44q-60 -55 -120 -78q-63 -24 -145 -24q-122 0 -207 49q-88 51 -139 127q-53 79 -77 171 q-25 97 -25 183zM410 512q0 -126 27 -191t106 -65q35 0 61 10t55 33v420q-50 49 -102 49q-85 0 -116 -66q-31 -65 -31 -190z" />
<glyph unicode="e" horiz-adv-x="1024" d="M41 514q0 85 20 172q21 93 76 171q55 79 153 132t251 53q202 0 320 -97t118 -302q0 -49 -6 -103l-17 -139h-555q6 -65 48 -104q40 -37 112 -37q62 0 129 16q70 17 164 66l92 -258l-62 -35q-41 -21 -80 -34q-47 -15 -109 -24q-63 -9 -148 -9q-158 0 -256 52 q-99 53 -154 131q-55 79 -76 172q-20 89 -20 177zM401 614h240v37q0 23 -2 37q-6 40 -33 62q-26 22 -65 22q-63 0 -101 -41t-39 -117z" />
<glyph unicode="f" horiz-adv-x="886" d="M45 1024h139l2 4q-22 27 -48 72q-25 44 -25 108q0 94 39 157q38 61 97 99t128 53t133 15q98 0 202 -21q107 -22 183 -59l-25 -344h-247l-41 180q-60 -1 -88 -33q-27 -30 -27 -75t20 -85q23 -45 43 -71h267v-254h-256v-489h176v-281h-641v281h104v489h-114z" />
<glyph unicode="g" horiz-adv-x="1171" d="M20 14q106 52 180 123q73 70 103 162q-44 15 -85 40q-40 25 -75 67q-32 39 -53 100q-20 57 -20 143q0 111 39 186q38 73 105 120q64 45 153 67q81 20 182 20q66 0 125 -7q70 -8 121 -27q47 58 99 86t134 28q18 0 58 -5q35 -4 71 -23l-18 -246h-144q23 -35 35 -88 q12 -52 12 -111q0 -120 -44 -197q-44 -78 -117 -121q-76 -45 -168 -61t-195 -16q-5 0 -8 1t-10 1q5 -19 30 -29q27 -11 61 -15q35 -5 67 -6q23 -1 55 -1q121 0 207 -22q80 -20 131 -59q48 -36 68 -92q20 -55 20 -120q0 -108 -44 -179q-44 -72 -120 -112q-75 -40 -175 -58 q-99 -18 -212 -18q-126 0 -234 17q-104 16 -179 57q-73 40 -115 112q-40 70 -40 179v104zM367 -6v-41q0 -131 215 -131q98 0 144 15t46 54q0 27 -18 42q-19 16 -95 16q-81 0 -160 6t-132 39zM434 614q0 -61 31 -87q29 -24 84 -29q58 0 93 25q36 25 36 91v66q0 62 -35 89 q-36 28 -88 28q-51 0 -87 -28q-34 -27 -34 -89v-66z" />
<glyph unicode="h" horiz-adv-x="1257" d="M37 1202v260l418 72l57 -37v-594l68 82q35 18 79 33q42 14 99 14q196 0 279 -108q83 -109 83 -316v-327h99v-281h-459v555q0 43 -4 72q-5 34 -16 57q-13 25 -32 39q-20 14 -57 14q-53 0 -88 -27q-32 -25 -51 -53v-376h96v-281h-547v281h91v921h-115z" />
<glyph unicode="i" horiz-adv-x="692" d="M66 0v281h124v462h-120v263l440 38l41 -32v-731h102v-281h-587zM129 1288q0 39 17 69q18 32 47 56q29 25 68 39q38 14 83 14q96 0 157 -53q60 -53 60 -125q0 -77 -59 -129q-61 -53 -158 -53q-45 0 -83 14q-39 14 -68 39q-29 24 -47 59q-17 33 -17 70z" />
<glyph unicode="j" horiz-adv-x="638" d="M-123 -371l10 297h211l78 -147h14v964h-120v263l440 38l41 -32v-873q0 -176 -46 -286q-47 -113 -114 -175q-69 -64 -143 -86q-75 -22 -135 -22q-86 0 -143 19q-60 20 -93 40zM129 1288q0 39 17 69q18 32 47 56q29 25 68 39q38 14 83 14q96 0 157 -53q60 -53 60 -125 q0 -77 -59 -129q-61 -53 -158 -53q-45 0 -83 14q-39 14 -68 39q-29 24 -47 59q-17 33 -17 70z" />
<glyph unicode="k" horiz-adv-x="1269" d="M55 1202v260l418 72l57 -37v-852l154 191q24 31 65 74q41 42 73 64q43 29 86 44q45 16 102 16q25 0 57 -2q25 -2 47 -6l45 -9q7 -1 24.5 -5t28.5 -6l-28 -355h-191l-49 84l-84 -104l187 -350h174v-281h-381l-310 553v-272h84v-281h-551v281h107v921h-115z" />
<glyph unicode="l" horiz-adv-x="710" d="M66 0v281h120v921h-114v260l417 72l58 -37v-1216h125v-281h-606z" />
<glyph unicode="m" horiz-adv-x="1861" d="M47 743v261l399 40q19 -44 29 -78l21 -71l82 92q40 19 84 32q45 13 102 13q54 0 100 -8q39 -7 77 -25q32 -16 60 -40q27 -24 54 -54q69 57 145 93q72 34 166 34q195 0 279 -108t84 -316v-327h94v-281h-455v555q0 83 -17 131q-18 51 -87 51q-54 0 -87 -26q-35 -27 -51 -54 v-376h95v-281h-455v555q0 83 -17 131q-18 51 -87 51q-55 0 -88 -26t-50 -54v-376h97v-281h-547v281h90v462h-117z" />
<glyph unicode="n" horiz-adv-x="1265" d="M47 745v259l399 40q19 -44 29 -78l21 -71l82 92q44 19 87 32q45 13 99 13q196 0 282 -108q84 -106 84 -316v-327h97v-281h-457v555q0 43 -4 72q-5 37 -15 57q-13 25 -32 39q-20 14 -55 14q-54 0 -89 -27q-32 -25 -51 -53v-376h97v-281h-547v281h90v464h-117z" />
<glyph unicode="o" horiz-adv-x="1105" d="M41 514q0 58 7 111q7 54 26 114t51 111q33 53 86 98q72 56 160 75q86 19 182 19q102 0 183 -17q87 -18 159 -77q53 -43 89 -98q33 -51 52 -110q20 -64 24 -113q5 -63 5 -113t-5 -113q-4 -55 -23 -114q-20 -64 -51 -111q-36 -54 -91 -98q-73 -60 -159 -78t-183 -18 t-183 18t-159 78q-53 43 -89 98q-31 48 -51 110q-18 58 -24 114q-6 58 -6 114zM410 510q0 -124 30 -187t113 -63t113 63t30 189q0 128 -30 191t-113 63t-113 -64q-30 -63 -30 -192z" />
<glyph unicode="p" horiz-adv-x="1175" d="M35 745v259l377 38q9 -15 22 -54l21 -64l69 80q25 14 83 27q48 11 87 11q123 0 204 -40q84 -41 135 -110q53 -70 75 -168q22 -95 22 -212q0 -105 -19 -197q-20 -97 -65 -168q-47 -74 -124 -117q-79 -44 -197 -44q-61 0 -112 20q-55 21 -101 78v-272h137v-263h-606v263 h109v933h-117zM512 326q22 -30 49 -47q30 -19 53 -19q82 0 115 65q33 64 33 187q0 125 -29 191q-29 65 -106 65q-34 0 -67 -22t-48 -41v-379z" />
<glyph unicode="q" horiz-adv-x="1118" d="M45 516q0 99 20 196q20 98 65 169q47 74 124 117q79 44 197 44q55 0 124 -24q70 -24 127 -92l29 63q17 34 31 53l262 -18v-1212h94v-263h-588v263h134v245q-60 -44 -108 -58q-45 -13 -75 -13q-122 0 -203 40q-85 42 -136 110q-51 69 -74 168q-23 100 -23 212zM414 516 q0 -128 28 -191q29 -65 107 -65q33 0 66 22q34 22 49 42v378q-23 31 -50 48q-29 18 -53 18q-82 0 -115 -65q-32 -63 -32 -187z" />
<glyph unicode="r" horiz-adv-x="1011" d="M53 743v261l402 43q9 -18 26 -74q17 -55 23 -92q19 24 49 56q29 30 63 54q36 25 76 40q43 16 90 16q48 0 91 -12q47 -13 106 -46l-47 -418h-252l-43 170q-24 -7 -57 -48q-34 -42 -50 -89v-323h136v-281h-598v281h102v462h-117z" />
<glyph unicode="s" horiz-adv-x="960" d="M66 98v281h284v-111q25 -13 59 -20q37 -8 62 -8q47 0 67 20q22 22 23 47q-4 33 -50 49q-55 19 -108 35q-70 20 -133 45q-59 23 -105 61t-69 89q-24 52 -24 131q0 62 20 118t71 104q49 46 133 75q81 28 210 28q93 0 196 -22q102 -22 183 -53l-10 -305h-273l-18 112 q-8 2 -23.5 4.5t-21.5 3.5q-21 4 -43 4q-44 0 -66 -14q-24 -15 -24 -39q0 -29 37 -47q43 -20 95 -37l121 -41q67 -23 122 -59q59 -39 95 -92q37 -55 37 -138q0 -61 -21 -121t-73 -109q-51 -48 -135 -78q-81 -29 -209 -29q-131 0 -227 27t-182 89z" />
<glyph unicode="t" horiz-adv-x="774" d="M41 770v213q48 17 82 47q32 28 45 47l108 160h213v-213h232l-19 -254h-213v-319q0 -35 1 -54q1 -25 10 -53q8 -25 24 -41t45 -16q25 0 53 7q20 5 58 15l70 -264q-105 -40 -185 -51q-76 -10 -121 -10q-156 0 -236 92q-79 91 -79 301v393h-88z" />
<glyph unicode="u" horiz-adv-x="1249" d="M37 743v281h528v-281h-80l-2 -282q0 -38 1 -60q1 -30 11 -62q9 -30 29 -50q21 -21 58 -21q58 0 94 25q33 23 55 53v397h-84v281h537v-281h-92v-462h108v-281h-360q-13 14 -34 44q-17 25 -28 52l-39 -36q-16 -15 -51 -36q-30 -18 -74 -30t-104 -12q-204 0 -295 96 q-92 97 -92 305v360h-86z" />
<glyph unicode="v" horiz-adv-x="1234" d="M37 743v281h536v-281h-79l116 -403v-68h6l152 471h-111v281h543v-281h-106l-244 -743h-471l-227 743h-115z" />
<glyph unicode="w" horiz-adv-x="1843" d="M37 743v281h565v-281h-115l101 -411v-60h8l164 752h313l176 -692v-60h8l117 471h-139v281h573v-281h-120l-189 -743h-463l-125 489h-8v-45l-96 -444h-473l-182 743h-115z" />
<glyph unicode="x" horiz-adv-x="1134" d="M49 0v281h162l151 231l-163 231h-133v281h356l162 -229l147 229h332v-281h-164l-133 -206l180 -256h139v-281h-362l-182 258l-154 -258h-338z" />
<glyph unicode="y" horiz-adv-x="1234" d="M39 743v281h547v-281h-78l115 -335v-113h4l145 448h-102v281h530v-281h-100l-266 -821q-28 -83 -64 -146q-39 -69 -91 -115q-54 -48 -129 -75q-72 -26 -173 -26q-75 0 -131 14q-62 15 -113 33l8 340h246l53 -193l90 246h-118l-254 743h-119z" />
<glyph unicode="z" horiz-adv-x="1001" d="M57 201l469 563h-151l-56 -158h-233v418h809l31 -225l-430 -518h174l28 141h263l-31 -422h-848z" />
<glyph unicode="{" horiz-adv-x="882" d="M82 391v287q76 2 117 21q40 19 60 61q19 40 24 105q4 57 4 159q0 117 10 186q11 74 31 117q22 46 52 71q32 26 75 48q45 22 117 36q69 13 171 13h95v-291q-73 0 -109 -4q-42 -5 -62 -16q-21 -12 -29 -34q-7 -20 -7 -56q0 -140 -6 -230q-6 -86 -25 -150q-19 -62 -52 -101 q-32 -37 -89 -76q44 -28 78 -62q32 -32 53 -92t30 -156t9 -250q0 -35 9 -56q9 -22 32 -34q24 -13 63 -17q45 -5 105 -5v-289h-95q-149 0 -244 25q-92 24 -139 82q-47 57 -60 148q-13 88 -13 224q0 87 -5 157q-4 59 -25 101q-19 39 -60 57q-36 16 -115 21z" />
<glyph unicode="|" horiz-adv-x="593" d="M143 -428v1987h308v-1987h-308z" />
<glyph unicode="}" horiz-adv-x="882" d="M45 -133q73 0 109 4q42 5 62 16q21 12 29 34q7 20 7 56q0 137 6 229q6 87 25 151q19 62 52 101q34 40 89 77q-48 29 -78 60q-32 34 -53 93q-21 60 -30 156t-9 250q0 32 -9 55t-32 35q-24 13 -63 17q-45 5 -105 5v289h94q150 0 245 -25q92 -24 138 -81q48 -58 61 -149 q13 -88 13 -224q0 -87 5 -157q4 -60 25 -101q20 -39 60 -57q36 -16 115 -21v-287q-78 -5 -117 -22q-40 -18 -60 -60q-20 -41 -24 -105q-4 -57 -4 -159q0 -117 -10 -186q-11 -74 -31 -117q-22 -46 -52 -71q-31 -25 -75 -48q-44 -22 -118 -36q-69 -13 -171 -13h-94v291z" />
<glyph unicode="~" horiz-adv-x="1253" d="M74 424v348q86 80 170 122t170 42q92 0 264 -90q63 -32 115 -54q48 -20 75 -20q110 0 312 211v-350q-168 -160 -332 -160q-36 0 -67 6q-27 5 -65 20q-35 14 -71 31l-82 43q-113 60 -170 60q-110 0 -319 -209z" />
<glyph unicode="&#xa2;" horiz-adv-x="1081" d="M86 750q0 93 24 179q25 87 69 152q48 69 117 115q71 47 163 68v231h250v-227q58 -7 129 -26q72 -19 131 -50l-21 -352h-268l-25 161h-53q-51 0 -80 -23q-31 -25 -48 -60t-23 -83q-7 -54 -7 -92q0 -47 11 -93q11 -47 32 -77q22 -32 61 -51q38 -18 91 -18q61 0 126 28 q61 26 116 58l98 -260q-15 -15 -32 -28q-23 -18 -51 -31q-25 -12 -78 -29q-47 -15 -109 -21v-221h-250v225q-196 34 -285 173q-88 137 -88 352z" />
<glyph unicode="&#xa3;" d="M109 590v270h165q-15 34 -43 106q-20 51 -20 121q0 74 22 137t89 130q72 71 176 106q103 35 207 35q114 0 207 -32q92 -32 171 -103l-198 -258q-35 34 -75 54q-42 20 -95 20q-74 0 -121 -38t-47 -116q0 -48 16 -86q19 -45 29 -76h334v-270h-305q-6 -46 -20 -86 q-14 -39 -30 -68q-18 -33 -37 -56l-42 -52q34 8 54 9q13 1 48 1q82 0 141 -14q63 -15 131 -15q40 0 87 10q55 12 98 31l104 -282q-66 -38 -127 -54q-60 -16 -121 -16q-98 0 -196 22q-103 23 -215 23q-115 0 -248 -43l-119 272q68 74 115 147t59 171h-194z" />
<glyph unicode="&#xa5;" horiz-adv-x="1216" d="M18 1174v294h562v-294h-119l155 -308l170 308h-110v294h518v-294h-92l-144 -246h119v-199h-235l-68 -123v-10h303v-199h-303v-102h127v-295h-604v295h135v102h-307v199h299l-72 133h-227v199h117l-136 246h-88z" />
<glyph unicode="&#xa8;" horiz-adv-x="784" d="M72 1137v256h266v-256h-266zM446 1137v256h267v-256h-267z" />
<glyph unicode="&#xa9;" horiz-adv-x="1665" d="M72 748q0 159 56 295q58 141 158 241q103 103 240 162t305 59q169 0 306 -59t240 -162q101 -101 159 -241q57 -138 57 -295q0 -158 -57 -295q-58 -139 -159 -240q-103 -103 -240 -162t-306 -59q-168 0 -305 59t-240 162q-99 99 -158 240q-56 134 -56 295zM293 748 q0 -125 40 -226q41 -103 112 -177q73 -76 171 -116q100 -41 215 -41q117 0 217 41q98 40 171 116q71 74 112 177t41 226q0 121 -41 226q-41 104 -112 177q-73 74 -171 116q-99 42 -217 42q-116 0 -215 -42q-98 -42 -171 -116q-71 -73 -112 -177q-40 -102 -40 -226zM412 758 q0 55 4 99q5 53 19 97q15 46 42 90q26 42 74 82v-2q56 49 125 67q64 17 153 17q94 0 169 -22q78 -23 141 -56l-15 -243h-180l-14 121q-17 4 -50 10q-24 4 -57 4q-168 0 -168 -231v-76q0 -116 41 -180t127 -64q32 0 62 2q24 2 51 16v127h209v-219q-43 -51 -120 -81 q-75 -29 -206 -31q-126 0 -206 44q-78 43 -124 113q-44 67 -61 153q-16 80 -16 163z" />
<glyph unicode="&#xab;" horiz-adv-x="1226" d="M41 512l264 512h318l-265 -512l265 -512h-318zM604 512l264 512h318l-264 -512l264 -512h-318z" />
<glyph unicode="&#xad;" horiz-adv-x="774" d="M90 502v291h594v-291h-594z" />
<glyph unicode="&#xae;" horiz-adv-x="1665" d="M72 748q0 159 56 295q58 141 158 241q103 103 240 162t305 59q169 0 306 -59t240 -162q101 -101 159 -241q57 -138 57 -295q0 -158 -57 -295q-58 -139 -159 -240q-103 -103 -240 -162t-306 -59q-168 0 -305 59t-240 162q-99 99 -158 240q-56 134 -56 295zM293 748 q0 -131 45 -239q44 -106 125 -181v151h72v535h-64v162q-85 -76 -132 -185q-46 -107 -46 -243zM481 1186h393q112 0 178 -32q65 -32 95 -75q31 -45 38 -88q7 -42 7 -71q0 -107 -53 -157t-131 -65l125 -219h77v-143q76 76 119 179q43 102 43 233q0 121 -41 226 q-41 104 -112 177q-73 74 -171 116q-99 42 -217 42q-102 0 -192 -32t-158 -91zM485 307q70 -58 157 -88q90 -31 189 -31q100 0 190 31q87 30 157 88h-187l-229 410v-238h76v-172h-353zM762 795h92q34 0 52 11q19 11 31 27q11 13 14 33q3 18 3 35q0 47 -18 80t-84 33h-90 v-219z" />
<glyph unicode="&#xb4;" horiz-adv-x="712" d="M72 1126l231 277h338l-299 -277h-270z" />
<glyph unicode="&#xb8;" horiz-adv-x="688" d="M102 -322q13 0 67 -2q40 -1 77 3q35 4 65 20q29 15 33 47q6 47 -38 73q-43 25 -113 25h-41l43 90q63 10 81 11q46 2 52 2q65 0 113 -18q50 -19 81 -44q34 -28 48 -60q16 -37 16 -67q0 -60 -24 -100q-26 -45 -63 -69q-43 -29 -93 -40q-53 -12 -113 -12q-44 0 -97 8 q-49 7 -94 29v104z" />
<glyph unicode="&#xbb;" horiz-adv-x="1226" d="M41 0l264 512l-264 512h317l265 -512l-265 -512h-317zM604 0l264 512l-264 512h318l264 -512l-264 -512h-318z" />
<glyph unicode="&#x2c6;" horiz-adv-x="1007" d="M102 1126l232 277h340l231 -277h-270l-131 125l-131 -125h-271z" />
<glyph unicode="&#x2da;" horiz-adv-x="653" d="M66 1319q0 65 20 108q21 46 55 75q32 28 82 44q47 15 101 15q55 0 103 -15q50 -16 84 -44q34 -29 56 -75q21 -45 21 -108q0 -57 -21 -99q-22 -44 -56 -71q-35 -28 -84 -43q-45 -14 -103 -14q-110 0 -184 56t-74 171zM242 1327q0 -37 18 -64q19 -28 64 -28q48 0 68 28 t20 64t-20 64q-19 26 -68 26q-47 0 -64 -26q-18 -27 -18 -64z" />
<glyph unicode="&#x2dc;" horiz-adv-x="999" d="M82 1282q54 49 81 70q35 28 67 46q26 15 63 24q32 8 65 8q47 0 95 -17q51 -18 82 -37q4 -2 49 -25q24 -12 49 -12q8 0 24 2q8 1 28 11q15 7 38 26q21 17 53 52l142 -154q-54 -49 -81 -70q-32 -26 -68 -46q-26 -15 -62 -24q-32 -8 -66 -8q-46 0 -94 17q-51 18 -82 37 q-4 3 -49 25q-24 12 -49 12q-9 0 -25 -2q-8 -1 -28 -11q-15 -7 -38 -26q-21 -17 -53 -52z" />
<glyph unicode="&#x401;" horiz-adv-x="1300" d="M61 0v295h154v905h-154v295h1135v-455h-293l-22 160h-277v-295h314v-276h-314v-334h291v192h332v-487h-1166zM330 1608v256h266v-256h-266zM705 1608v256h266v-256h-266z" />
<glyph unicode="&#x402;" horiz-adv-x="1728" d="M53 1018v477h1319v-477h-321l-23 182h-176l2 -328q71 39 142 63q82 28 192 28q118 0 210 -37t158 -103q68 -68 101 -156q35 -93 35 -202q0 -94 -26 -184q-26 -89 -82 -157q-58 -70 -148 -110q-93 -41 -224 -41q-30 0 -98 9q-57 8 -102 18l12 385h205l18 -115q14 14 25 39 q9 20 14 53q4 28 6 57q2 36 2 46q0 103 -54 150q-55 47 -138 47q-29 0 -70 -9q-32 -7 -68 -21q-31 -12 -63 -29q-27 -14 -49 -30v-278h102v-295h-675v295h184v905h-86q-8 -62 -13 -93l-14 -89h-297z" />
<glyph unicode="&#x403;" horiz-adv-x="1224" d="M63 1200v295h1115v-534h-328l-29 239h-215v-905h185v-295h-725v295h151v905h-154zM389 1597l232 277h337l-299 -277h-270z" />
<glyph unicode="&#x404;" horiz-adv-x="1433" d="M57 758q0 188 55 341q54 149 149 255q92 103 225 159q132 56 282 56q95 0 177 -16q77 -15 167 -60l64 55h170v-571h-279q-7 135 -82 206q-73 70 -217 70q-86 0 -143 -30q-56 -29 -90 -79q-34 -49 -47 -107q-13 -56 -13 -115h520v-271h-520q0 -71 21 -136q22 -68 60 -113 q40 -48 98 -76q60 -29 137 -29q105 0 182 59t98 187h299l2 -213q-28 -92 -82 -157q-58 -69 -132 -111q-76 -43 -169 -66q-94 -23 -192 -23q-181 0 -319 60q-139 61 -231 164q-96 108 -142 247q-48 144 -48 314z" />
<glyph unicode="&#x405;" horiz-adv-x="1298" d="M74 1081q0 87 31 164t103 138t181 98q108 36 268 41q127 0 248 -18q131 -19 269 -56l-17 -457h-295l-37 203q-23 5 -61 10q-29 4 -70 4q-37 0 -70 -4q-44 -5 -71 -15q-32 -12 -55 -33t-23 -54q0 -54 86 -102q84 -47 268 -109q124 -47 203 -96q80 -49 126 -108 q47 -59 65 -125t18 -146q0 -71 -28 -153q-26 -77 -95 -143t-183 -106q-117 -41 -294 -41q-184 0 -316 45q-129 44 -237 132v399h354v-213q34 -22 94 -36q56 -13 105 -13q32 0 74 5q37 4 66 19q30 15 47 38q18 24 18 61q0 42 -34 72q-37 32 -81 52t-97 36t-81 30 q-106 38 -197 83q-87 43 -151 99q-62 54 -97 128q-34 71 -34 171z" />
<glyph unicode="&#x406;" horiz-adv-x="868" d="M66 0v295h178v905h-172v295h731v-295h-170v-905h174v-295h-741z" />
<glyph unicode="&#x407;" horiz-adv-x="874" d="M66 0v295h184v905h-182v295h745v-295h-174v-905h174v-295h-747zM117 1608v256h266v-256h-266zM492 1608v256h266v-256h-266z" />
<glyph unicode="&#x408;" horiz-adv-x="1048" d="M45 74v422h289l31 -226h20q33 0 55 22q20 20 31 51q10 28 13 63q3 33 3 55v739h-176v295h684v-295h-118v-618q0 -1 -3 -121q-1 -57 -14 -117q-11 -52 -37 -114q-24 -56 -69 -109q-68 -83 -168 -114q-102 -32 -211 -32t-196 29q-82 27 -134 70z" />
<glyph unicode="&#x409;" horiz-adv-x="2103" d="M39 53l24 441h248l54 -156q58 86 72 188q14 104 14 211v463h-164v295h1255v-295h-135v-295h100q156 0 263 -37q110 -38 174 -98q66 -61 94 -140q28 -78 28 -163q0 -68 -16 -148q-16 -81 -72 -152q-57 -72 -162 -119q-108 -48 -290 -48h-670v295h162v905h-199v-319 q0 -80 -3 -167q-3 -88 -15 -173q-11 -80 -40 -168q-27 -82 -77 -152q-78 -111 -179 -169t-218 -58q-59 0 -125 18q-62 17 -123 41zM1407 295h68q111 0 151 40q41 41 41 132q0 87 -50 125q-49 37 -128 37h-82v-334z" />
<glyph unicode="&#x40a;" horiz-adv-x="2166" d="M63 0v295h156v905h-149v295h698v-295h-160v-295h469v295h-149v295h676v-295h-138v-295h101q156 0 263 -37q108 -38 173 -98q66 -61 94 -140q29 -81 29 -163q0 -63 -17 -148q-17 -83 -71 -152q-56 -72 -163 -119q-108 -48 -290 -48h-659v295h151v334h-469v-334h158v-295 h-703zM1466 295h68q112 0 152 40t40 132q0 87 -50 125q-49 37 -128 37h-82v-334z" />
<glyph unicode="&#x40b;" horiz-adv-x="1789" d="M53 1018v477h1319v-477h-321l-23 182h-174v-377h8q78 80 159 109q85 31 169 31q192 0 300 -105q107 -104 107 -321v-242h136v-295h-525v487q0 24 -3 54q-3 31 -16 57t-41 45t-79 19q-30 0 -61 -11q-43 -15 -60 -24q-34 -18 -53 -31q-21 -14 -41 -29v-272h141v-295h-719 v295h187v905h-86q-8 -62 -13 -93l-14 -89h-297z" />
<glyph unicode="&#x40c;" horiz-adv-x="1626" d="M61 0v295h187v905h-178v295h690v-295h-123v-344l297 406q82 110 178 176q95 65 219 65q67 0 128 -11q69 -13 112 -24l-10 -444h-273l-39 160l-59 -99l-178 -245l344 -545h209v-295h-455l-473 748v-453h170v-295h-746zM633 1597l231 277h338l-299 -277h-270z" />
<glyph unicode="&#x40e;" horiz-adv-x="1554" d="M51 1200v295h684v-295h-125l185 -426l200 426h-153v295h667v-295h-139l-471 -934q-47 -90 -96 -147q-49 -56 -104 -90q-55 -33 -110 -45q-62 -13 -118 -13q-60 0 -134 11q-75 11 -134 28l22 461h228l63 -225l76 162l-381 792h-160zM408 1815v59h262v-35q0 -19 1 -31 q1 -18 10 -35q9 -18 30 -30t59 -12h37q39 0 59 13q21 13 30 32q8 17 10 38q1 13 1 31v29h262v-59q0 -65 -26 -107q-27 -44 -76 -69q-47 -24 -117 -35q-71 -11 -149 -11h-33q-79 0 -145 12q-71 13 -114 37q-48 27 -75 69q-26 40 -26 104z" />
<glyph unicode="&#x40f;" horiz-adv-x="1626" d="M61 1200v295h693v-295h-152v-905h434v905h-159v295h688v-295h-140v-905h127v-295h-561v-221h-354v221h-557v295h133v905h-152z" />
<glyph unicode="&#x410;" horiz-adv-x="1665" d="M51 0v295h148l301 905h-121v295h897v-295h-121l301 -905h160v-295h-725v295h188l-57 174h-416l-49 -174h168v-295h-674zM678 723h256l-139 477l-7 -88z" />
<glyph unicode="&#x411;" horiz-adv-x="1435" d="M63 0v295h142v905h-129v295h1208v-485h-303l-45 190h-342v-282h225q167 0 274 -40q109 -41 171 -103q64 -64 89 -141q25 -78 25 -159q0 -69 -16 -149q-17 -84 -73 -155q-58 -74 -164 -122q-107 -49 -287 -49h-775zM594 295h192q111 0 152 45q41 46 41 137q0 93 -51 130 q-52 38 -129 38h-205v-350z" />
<glyph unicode="&#x412;" horiz-adv-x="1425" d="M61 1200v295h639q178 0 289 -34q113 -35 189 -126q57 -71 67 -137q10 -63 10 -106q0 -76 -42 -148q-42 -73 -117 -102v-4q134 -38 206 -138t72 -229q0 -67 -16 -147q-16 -82 -72 -154q-55 -72 -163 -121q-107 -49 -289 -49h-771v295h138v905h-140zM590 295h192 q112 0 152 42q41 43 41 134q0 93 -51 130q-52 38 -129 38h-205v-344zM590 915h153q87 0 117 42q31 43 31 114q0 76 -48 103q-46 26 -136 26h-117v-285z" />
<glyph unicode="&#x413;" horiz-adv-x="1232" d="M61 1200v295h1115v-534h-328l-29 239h-215v-905h184v-295h-725v295h152v905h-154z" />
<glyph unicode="&#x414;" horiz-adv-x="1591" d="M45 -188v483h199q55 93 88 199q32 103 49 218q16 109 22 235q7 142 7 253h-138v295h1207v-295h-115v-905h174v-483h-356v188h-781v-188h-356zM625 295h350v905h-215q0 -106 -5 -241q-4 -107 -19 -239q-14 -119 -40 -225q-28 -113 -71 -200z" />
<glyph unicode="&#x415;" horiz-adv-x="1298" d="M61 0v295h154v905h-154v295h1135v-455h-293l-22 160h-277v-295h314v-276h-314v-334h291v192h332v-487h-1166z" />
<glyph unicode="&#x416;" horiz-adv-x="2379" d="M61 1468q43 11 112 24q61 11 128 11q124 0 219 -65q96 -66 178 -176l297 -406v344h-186v295h758v-295h-183v-344l297 406q80 108 179 176q95 65 219 65q67 0 128 -11q66 -12 111 -24l-10 -444h-272l-39 160l-60 -99l-178 -245l344 -545h209v-295h-454l-474 748v-453h185 v-295h-762v295h188v453l-473 -748h-454v295h208l345 545l-179 245l-59 99l-39 -160h-272z" />
<glyph unicode="&#x417;" horiz-adv-x="1280" d="M72 147v379h344v-190q36 -19 90 -35q46 -14 108 -14q43 0 82 9q38 9 69 29q29 19 46 50q16 29 16 76q0 65 -26 101t-74 58q-45 20 -114 28q-62 7 -148 7v252q62 0 116 9q53 9 95 29q41 20 64 53q24 34 24 83q0 60 -56 98q-57 39 -130 39q-70 0 -129 -20l-37 -217h-289 l-17 434q123 55 242 85q125 32 254 32q149 0 261 -31q107 -30 175 -87q69 -58 98 -134q29 -75 29 -170t-50 -168t-126 -119q78 -34 125 -80q48 -46 73 -95q27 -52 34 -99q8 -53 8 -88q0 -74 -29 -161q-28 -86 -99 -156q-70 -70 -188 -117q-116 -46 -292 -46q-184 0 -313 46 q-130 46 -236 130z" />
<glyph unicode="&#x418;" horiz-adv-x="1654" d="M61 0v295h160v905h-158v295h668v-295h-121v-483l457 483h-121v295h647v-295h-143v-905h141v-295h-690v295h160v491l-465 -491h162v-295h-697z" />
<glyph unicode="&#x419;" horiz-adv-x="1654" d="M61 0v295h160v905h-158v295h668v-295h-121v-483l457 483h-121v295h647v-295h-143v-905h141v-295h-690v295h160v491l-465 -491h162v-295h-697zM459 1815v59h262v-35q0 -19 1 -31q2 -18 10 -35q9 -18 30 -30t59 -12h37q40 0 60 13q19 12 29 32q8 17 10 38q1 13 1 31v29h263 v-59q0 -63 -27 -107t-76 -69q-47 -24 -117 -35q-71 -11 -149 -11h-33q-79 0 -145 12q-71 13 -114 37q-48 27 -75 69q-26 40 -26 104z" />
<glyph unicode="&#x41a;" horiz-adv-x="1632" d="M61 0v295h187v905h-178v295h690v-295h-123v-344l297 406q82 110 178 176q95 65 219 65q67 0 128 -11q69 -13 112 -24l-10 -444h-273l-39 160l-59 -99l-178 -245l344 -545h209v-295h-455l-473 748v-453h170v-295h-746z" />
<glyph unicode="&#x41b;" horiz-adv-x="1632" d="M39 53l24 441h248l54 -156q58 86 72 188q14 104 14 211v463h-164v295h1284v-295h-135v-905h133v-295h-686v295h164v905h-228v-319q0 -80 -3 -167q-3 -88 -15 -173q-11 -80 -40 -168q-27 -82 -77 -152q-78 -111 -179 -169t-218 -58q-59 0 -125 18q-62 17 -123 41z" />
<glyph unicode="&#x41c;" horiz-adv-x="2004" d="M61 0v295h170v905h-149v295h616l322 -704l340 704h584v-295h-152v-905h160v-295h-740v295h191v663l-367 -755h-92l-352 774h-2v-682h184v-295h-713z" />
<glyph unicode="&#x41d;" horiz-adv-x="1695" d="M61 0v295h158v905h-147v295h694v-295h-158v-295h492v295h-150v295h684v-295h-145v-905h143v-295h-684v295h152v334h-492v-334h156v-295h-703z" />
<glyph unicode="&#x41e;" horiz-adv-x="1507" d="M53 748q0 94 7 175q8 89 31 168q24 82 70 154q48 75 124 137q103 85 224 112q126 28 245 28q118 0 244 -28q122 -27 225 -112q76 -62 124 -137q44 -69 69 -154q23 -79 31 -168q7 -81 7 -175q0 -97 -7 -177q-8 -89 -31 -167q-25 -85 -69 -154q-48 -75 -124 -137 q-101 -83 -217 -111q-119 -29 -238 -29h-29q-118 1 -237 29q-116 27 -217 111q-76 61 -124 136q-46 71 -70 153q-23 79 -31 168q-7 81 -7 178zM463 680q0 -195 72 -294t219 -99t219 99q71 98 71 294v135q0 194 -71 293q-72 100 -219 100t-219 -99t-72 -294v-135z" />
<glyph unicode="&#x41f;" horiz-adv-x="1591" d="M61 0v295h158v905h-149v295h1454v-295h-135v-905h141v-295h-672v295h141v905h-391v-905h127v-295h-674z" />
<glyph unicode="&#x420;" horiz-adv-x="1343" d="M63 0v295h154v905h-154v295h703q179 0 287 -47q104 -45 161 -118q56 -71 72 -152q17 -85 17 -154q0 -232 -139 -354q-137 -121 -378 -121h-182v-254h176v-295h-717zM604 825h158q42 0 73 17q29 16 46 44q15 25 23 61q7 32 7 71q0 38 -7 69q-8 36 -27 59q-20 25 -57 40 q-34 14 -93 14h-123v-375z" />
<glyph unicode="&#x421;" horiz-adv-x="1359" d="M53 748q0 94 7 175q8 89 31 168q24 82 70 154q48 75 124 137q103 85 224 112q126 28 245 28q142 -5 263 -33q119 -28 255 -92l-23 -414h-303l-24 201q-34 6 -72 15t-96 9q-147 0 -219 -99t-72 -294v-135q0 -70 12 -140t45 -127t89 -91q58 -35 145 -35q47 0 92 6 q46 6 86 24v242h350v-395q-60 -54 -120 -91t-122 -59q-61 -22 -134 -31q-78 -10 -152 -10q-367 0 -534 202t-167 573z" />
<glyph unicode="&#x422;" horiz-adv-x="1482" d="M49 897v598h1385v-598h-320l-33 303h-145v-905h176v-295h-752v295h187v905h-146l-32 -303h-320z" />
<glyph unicode="&#x423;" horiz-adv-x="1554" d="M51 1200v295h684v-295h-125l185 -426l200 426h-153v295h667v-295h-139l-471 -934q-47 -90 -96 -147q-49 -56 -104 -90q-55 -33 -110 -45q-62 -13 -118 -13q-60 0 -134 11q-75 11 -134 28l22 461h228l63 -225l76 162l-381 792h-160z" />
<glyph unicode="&#x424;" horiz-adv-x="1921" d="M41 731v37q1 136 51 222q49 84 119 133q69 48 145 66q72 17 133 17q38 0 106 -13q72 -14 183 -79v86h-108v295h596v-295h-119v-100q27 15 57 33q25 15 70 34q37 16 85 28q43 11 105 11q66 0 138 -19q71 -19 136 -70q61 -48 104 -139q42 -88 42 -226v-13v-12 q0 -136 -47 -222q-46 -84 -116 -133q-69 -48 -146 -66q-74 -17 -137 -17q-25 0 -43 1q-30 2 -63 10q-27 7 -82 28q-43 17 -103 53v-86h108v-295h-596v295h119v100l-58 -33q-24 -14 -70 -34q-33 -15 -85 -28q-43 -11 -106 -11q-61 0 -135 18q-73 18 -137 68q-61 48 -104 135 q-42 86 -42 221zM449 735q0 -47 15 -77q14 -29 38 -46q21 -16 48 -22q25 -6 46 -6q55 0 97 26q45 28 85 74v152q-29 29 -72 50q-44 21 -98 21q-19 0 -43 -4q-28 -5 -52 -20q-25 -16 -45 -47q-19 -29 -19 -84v-17zM1147 659q29 -32 83 -52q51 -19 87 -19q17 0 41 4 q27 5 52 19q24 14 45 43q21 28 22 77v21q0 47 -16 81q-14 30 -38 49q-21 17 -49 23q-27 6 -47 6q-54 0 -96 -26q-43 -26 -84 -74v-152z" />
<glyph unicode="&#x425;" horiz-adv-x="1570" d="M57 0v295h133l375 475l-352 430h-135v295h661v-295h-77l163 -199l152 199h-109v295h635v-295h-166l-327 -422l393 -483h117v-295h-660v295h96l-202 248l-193 -248h135v-295h-639z" />
<glyph unicode="&#x426;" horiz-adv-x="1654" d="M61 1200v295h682v-295h-157v-905h411v905h-143v295h694v-295h-162v-905h216v-483h-357v188h-1177v295h129v905h-136z" />
<glyph unicode="&#x427;" horiz-adv-x="1536" d="M51 1200v295h645v-295h-135v-203q0 -21 3 -51t17 -58t39 -47q26 -20 70 -20q93 0 152 34q58 33 86 63v282h-146v295h693v-295h-158v-905h137v-295h-709v295h183v313q-21 -16 -49 -31q-32 -18 -64 -28q-40 -13 -87 -20q-46 -7 -120 -7q-210 0 -323 105t-113 321v252h-121z " />
<glyph unicode="&#x428;" horiz-adv-x="2297" d="M61 1200v295h674v-295h-133v-905h354v905h-131v295h654v-295h-133v-905h360v905h-141v295h669v-295h-139v-905h131v-295h-2163v295h150v905h-152z" />
<glyph unicode="&#x429;" horiz-adv-x="2363" d="M61 1200v295h672v-295h-131v-905h354v905h-133v295h654v-295h-131v-905h360v905h-141v295h667v-295h-137v-905h215v-483h-358v188h-1889v295h150v905h-152z" />
<glyph unicode="&#x42a;" horiz-adv-x="1456" d="M70 1200v295h776v-295h-90v-295h100q156 0 263 -37q108 -38 173 -98q66 -61 94 -140q29 -81 29 -163q0 -68 -16 -148q-16 -81 -72 -152q-56 -72 -163 -119q-108 -48 -290 -48h-681v295h174v905h-297zM756 295h67q112 0 152 40q41 41 41 132q0 87 -50 125q-49 37 -128 37 h-82v-334z" />
<glyph unicode="&#x42b;" horiz-adv-x="2091" d="M70 1200v295h688v-295h-137v-295h100q156 0 263 -37q108 -38 173 -98q66 -61 94 -140q29 -81 29 -163q0 -68 -16 -148q-16 -81 -72 -152q-56 -72 -163 -119q-108 -48 -290 -48h-661v295h153v905h-161zM621 295h67q112 0 152 40q41 41 41 132q0 86 -51 125q-49 37 -128 37 h-81v-334zM1335 1200v295h690v-295h-149v-905h154v-295h-680v295h137v905h-152z" />
<glyph unicode="&#x42c;" horiz-adv-x="1312" d="M66 1200v295h688v-295h-138v-295h101q156 0 263 -37q108 -38 173 -98q66 -61 94 -140q29 -81 29 -163q0 -68 -16 -148q-16 -81 -72 -152q-56 -72 -163 -119q-108 -48 -290 -48h-661v295h153v905h-161zM616 295h68q112 0 152 40q41 41 41 132q0 86 -51 125q-49 37 -128 37 h-82v-334z" />
<glyph unicode="&#x42d;" horiz-adv-x="1355" d="M74 164v395h350v-242q40 -18 86 -24q45 -6 92 -6q82 0 133 29q52 30 87 77q33 45 49 109q16 65 20 127h-412v276h410q-30 303 -287 303q-58 0 -96 -9t-72 -15l-24 -201h-304l-22 414q136 64 255 92q121 28 263 33q119 0 245 -28q121 -27 224 -112q76 -62 124 -137 q46 -72 70 -154q22 -74 30 -168q8 -93 8 -175q0 -371 -167 -573t-534 -202q-76 0 -153 10q-74 10 -134 31t-121 59q-60 37 -120 91z" />
<glyph unicode="&#x42e;" horiz-adv-x="2371" d="M61 0v295h187v905h-180v295h743v-295h-174v-295h285q11 134 58 256q48 122 169 221q103 85 224 112q126 28 245 28t245 -28q121 -27 224 -112q76 -62 124 -137q44 -69 69 -154q23 -79 31 -168q7 -81 7 -175q0 -97 -7 -177q-8 -89 -31 -167q-25 -85 -69 -154 q-48 -75 -124 -137q-101 -83 -217 -111q-119 -29 -238 -29h-28q-119 1 -238 29q-116 27 -217 111q-67 53 -108 112q-42 60 -67 125q-26 68 -38 135q-11 64 -16 144h-283v-334h174v-295h-750zM1327 680q0 -195 72 -294t219 -99t219 99t72 294v135q0 193 -72 293t-219 100 t-219 -99t-72 -294v-135z" />
<glyph unicode="&#x42f;" horiz-adv-x="1503" d="M57 0v295h191l219 387q-49 7 -106 31t-98 65q-46 46 -72 108q-27 64 -27 154q0 36 4 77q5 50 20 97q17 51 52 102q35 50 94 90t149 64q94 25 219 25h732v-295h-150v-905h158v-295h-678v295h131l-4 416l-404 -711h-430zM565 1012q0 -26 5 -61q4 -29 24 -59q19 -28 53 -46 q36 -19 92 -19h156v373h-154q-55 0 -89 -15q-32 -14 -53 -41q-19 -26 -27 -60q-7 -32 -7 -72z" />
<glyph unicode="&#x430;" horiz-adv-x="1110" d="M53 283q0 117 58 186q56 66 142 101q83 33 183 44q111 12 182 13v35q0 48 -16 84q-17 38 -72 38q-23 0 -68 -5q-41 -5 -89 -25l-25 -107h-233l-11 297q134 51 249 75q111 23 220 23q131 0 209 -37t123 -97q44 -59 59 -129q15 -71 15 -136v-362h88v-281h-252q-28 6 -65 40 q-38 35 -58 62q-25 -27 -47 -46q-23 -20 -59 -39q-31 -16 -85 -26q-49 -9 -124 -9q-98 0 -159 29q-60 28 -99 74q-35 40 -51 97q-15 52 -15 101zM403 309q0 -39 26 -57q27 -19 60 -19q46 0 80 20q32 19 49 42v115q-30 0 -68 -3q-37 -3 -70 -14t-54 -29q-23 -20 -23 -55z" />
<glyph unicode="&#x431;" horiz-adv-x="1105" d="M41 514q0 92 18 185q18 95 84 180q-35 72 -51 129q-16 55 -16 125q0 60 21 117q21 56 68 102q45 44 115 71q69 27 164 27q83 0 142 -14q63 -15 106 -15q59 0 100 23q38 21 80 63l156 -233q-51 -86 -130 -120q-78 -34 -183 -34q-87 0 -145 13q-54 12 -99 12q-54 0 -69 -18 t-15 -35q0 -30 16 -66q38 8 73 12q32 4 77 4q102 0 183 -17q87 -18 159 -77q53 -43 89 -98q33 -51 52 -110q20 -64 24 -113q5 -63 5 -113t-5 -113q-4 -55 -23 -114q-20 -64 -51 -111q-36 -54 -91 -98q-73 -60 -159 -78t-183 -18t-183 18t-159 78q-53 43 -89 98 q-31 48 -51 110q-18 58 -24 114q-6 58 -6 114zM410 510q0 -124 30 -187t113 -63t113 63t30 189q0 128 -30 191t-113 63t-113 -64q-30 -63 -30 -192z" />
<glyph unicode="&#x432;" horiz-adv-x="1097" d="M53 0v281h105v462h-101v281h549q210 0 299 -72q88 -72 88 -200q0 -56 -34 -111q-35 -57 -93 -80q97 -18 148 -83q51 -64 51 -150q0 -148 -108 -238t-330 -90h-574zM518 256h98q48 0 66 33t18 59q0 31 -19 60q-19 30 -63 30h-100v-182zM518 608h68q42 0 58 28q15 27 15 54 q0 33 -20 56q-21 24 -61 24h-60v-162z" />
<glyph unicode="&#x433;" horiz-adv-x="962" d="M53 0v281h121v462h-115v281h871v-446h-248l-37 192h-110v-489h112v-281h-594z" />
<glyph unicode="&#x434;" horiz-adv-x="1230" d="M37 281h151q26 51 40 103q18 67 25 116q8 55 13 122q5 64 6 121h-127v281h1006v-281h-90v-462h117v-457h-287l-21 176h-497l-21 -176h-295zM528 281h172v462h-98q-7 -114 -20 -246q-11 -112 -54 -216z" />
<glyph unicode="&#x435;" horiz-adv-x="1024" d="M41 514q0 85 20 172q21 93 76 171q55 79 153 132t251 53q202 0 320 -97t118 -302q0 -49 -6 -103l-17 -139h-555q6 -65 48 -104q40 -37 112 -37q62 0 129 16q70 17 164 66l92 -258l-62 -35q-41 -21 -80 -34q-47 -15 -109 -24q-63 -9 -148 -9q-158 0 -256 52 q-99 53 -154 131q-55 79 -76 172q-20 89 -20 177zM401 614h240v37q0 23 -2 37q-6 40 -33 62q-26 22 -65 22q-63 0 -101 -41t-39 -117z" />
<glyph unicode="&#x436;" horiz-adv-x="1916" d="M45 1006q68 13 122 20q64 8 134 8q57 0 100 -15q42 -14 80 -48q35 -31 74 -84l84 -121l139 -213v190h-76v281h519v-281h-82v-190l139 213q47 72 83 121q37 51 75 84q38 34 80 48q44 15 100 15q70 0 134 -8q54 -7 122 -20l-27 -375h-221l-22 141l-117 -176l217 -315h160 v-281h-383l-340 496v-215h88v-281h-537v281h88v215l-340 -496h-383v281h160l217 315l-117 176l-22 -141h-221z" />
<glyph unicode="&#x437;" horiz-adv-x="946" d="M53 109v292h287l2 -116q19 -14 48 -22q32 -9 61 -9q54 0 75 24t21 52q0 26 -18 46t-47 30q-31 11 -66 15q-42 5 -76 5v188h22q90 0 130 26q38 25 38 60q0 39 -28 54q-27 14 -60 14q-15 0 -39 -3q-28 -4 -41 -7l-30 -131h-250l-12 329q83 36 178 62t219 26q219 0 313 -81 q97 -83 97 -211q0 -144 -121 -205q88 -39 121 -105q32 -64 32 -129q0 -58 -23 -116q-25 -61 -76 -107q-56 -49 -136 -78q-84 -30 -205 -30q-146 0 -242 33q-102 35 -174 94z" />
<glyph unicode="&#x438;" horiz-adv-x="1325" d="M53 743v281h547v-281h-88v-329h8l23 84l293 526h436v-281h-96v-462h90v-281h-531v281h80v340h-8l-23 -86l-292 -535h-426v281h86v462h-99z" />
<glyph unicode="&#x439;" horiz-adv-x="1325" d="M53 743v281h547v-281h-88v-329h8l23 84l293 526h436v-281h-96v-462h90v-281h-531v281h80v340h-8l-23 -86l-292 -535h-426v281h86v462h-99zM287 1343v60h262v-35q0 -19 1 -31q2 -18 10 -35q9 -18 30 -30t59 -12h37q39 0 59 13q21 13 30 32q8 17 10 37q1 13 1 32v29h263 v-60q0 -63 -27 -106q-27 -44 -76 -69q-47 -24 -117 -35q-71 -11 -149 -11h-33q-79 0 -145 12q-71 13 -114 37q-48 27 -75 69q-26 40 -26 103z" />
<glyph unicode="&#x43a;" horiz-adv-x="1304" d="M57 0v281h109v462h-103v281h537v-281h-74v-190l140 213q47 72 83 121q39 53 74 84q38 34 80 48q44 15 101 15q70 0 134 -8q54 -7 122 -20l-27 -375h-221l-23 141l-117 -176l218 -315h159v-281h-383l-340 496v-215h90v-281h-559z" />
<glyph unicode="&#x43b;" horiz-adv-x="1273" d="M35 16l24 387h177l51 -114q14 11 23 42q10 34 14 63q5 35 6 67q2 44 2 53v229h-109v281h996v-281h-93v-462h95v-281h-537v281h82v462h-127v-194q0 -107 -16 -206q-16 -101 -60 -181q-44 -81 -120 -130q-77 -50 -199 -50q-64 0 -107 7q-53 9 -102 27z" />
<glyph unicode="&#x43c;" horiz-adv-x="1679" d="M53 0v281h123v462h-102v281h600l188 -518h4v55l219 463h533v-281h-90v-462h98v-281h-541v281h82v352h-6l-258 -588h-170l-231 635h-6v-399h92v-281h-535z" />
<glyph unicode="&#x43d;" horiz-adv-x="1296" d="M53 0v281h103v462h-95v281h535v-281h-80v-114h277v114h-72v281h522v-281h-90v-462h90v-281h-522v281h72v135h-277v-135h78v-281h-541z" />
<glyph unicode="&#x43e;" horiz-adv-x="1101" d="M39 514q0 58 7 111q7 54 26 114t51 111q33 53 86 98q72 56 160 75q86 19 182 19q102 0 183 -17q87 -18 159 -77q53 -43 89 -98q33 -51 52 -110q20 -64 24 -113q5 -63 5 -113t-5 -113q-4 -55 -23 -114q-20 -64 -51 -111q-36 -54 -91 -98q-73 -60 -159 -78t-183 -18 t-183 18t-159 78q-53 43 -89 98q-31 48 -51 110q-18 58 -24 114q-6 58 -6 114zM408 510q0 -124 30 -187t113 -63t113 63t30 189q0 128 -30 191t-113 63t-113 -64q-30 -63 -30 -192z" />
<glyph unicode="&#x43f;" horiz-adv-x="1230" d="M53 0v281h94v462h-94v281h1125v-281h-93v-462h93v-281h-521v281h68v462h-217v-462h74v-281h-529z" />
<glyph unicode="&#x440;" horiz-adv-x="1175" d="M35 745v259l377 38q9 -15 22 -54l21 -64l69 80q25 14 83 27q48 11 87 11q123 0 204 -40q84 -41 135 -110q53 -70 75 -168q22 -95 22 -212q0 -105 -19 -197q-20 -97 -65 -168q-47 -74 -124 -117q-79 -44 -197 -44q-61 0 -112 20q-55 21 -101 78v-272h137v-263h-606v263 h107v933h-115zM512 326q22 -30 49 -47q30 -19 53 -19q82 0 115 65q33 64 33 187q0 125 -29 191q-29 65 -106 65q-34 0 -67 -22t-48 -41v-379z" />
<glyph unicode="&#x441;" horiz-adv-x="968" d="M41 516q0 110 32 206q31 94 95 167q62 71 158 112t217 41q79 0 173 -15q95 -15 202 -71l-21 -354h-262l-25 166h-53q-48 0 -79 -23q-30 -22 -46 -59q-17 -38 -21 -82q-5 -50 -5 -90q0 -51 10 -94q10 -45 33 -78q22 -32 60 -52t91 -20q60 0 118 27t107 55l103 -254 l-60 -39q-24 -17 -73 -37q-39 -16 -102 -29q-54 -11 -142 -11q-137 0 -232 37t-157 107q-61 68 -91 168q-30 99 -30 222z" />
<glyph unicode="&#x442;" horiz-adv-x="1157" d="M47 578v446h1071v-446h-248l-36 192h-76v-489h155v-281h-669v281h153v489h-73l-37 -192h-240z" />
<glyph unicode="&#x443;" horiz-adv-x="1234" d="M39 743v281h547v-281h-74l106 -319v-129h9l145 448h-102v281h530v-281h-100l-266 -821q-28 -83 -64 -146q-39 -69 -91 -115q-54 -48 -129 -75q-72 -26 -173 -26q-75 0 -131 14q-62 15 -113 33l8 340h246l53 -193l90 246h-124l-248 743h-119z" />
<glyph unicode="&#x444;" horiz-adv-x="1654" d="M43 512q0 96 22 197q21 96 71 170q49 72 134 118q84 45 207 45q53 0 95 -12q41 -12 77 -29v201h-133v260l432 72l62 -37v-502l139 47q142 0 233 -50q92 -50 142 -129t70 -172q20 -95 20 -179q0 -99 -22 -198q-21 -95 -71 -169q-48 -71 -135 -118q-84 -45 -206 -45 q-52 0 -94 12q-38 11 -76 29v-218h137v-262h-604v262h106v222l-139 -45q-143 0 -234 50q-88 48 -142 127q-52 77 -72 171q-19 92 -19 182zM412 512q0 -129 26 -191q27 -65 94 -65q36 0 62 10t55 33v420q-50 49 -102 49q-82 0 -109 -66q-26 -64 -26 -190zM1010 305 q50 -49 102 -49q82 0 108 66q25 65 25 190q0 129 -26 191q-27 65 -95 65q-36 0 -60 -10q-26 -10 -54 -33v-420z" />
<glyph unicode="&#x445;" horiz-adv-x="1134" d="M49 0v281h162l151 231l-163 231h-133v281h356l162 -229l147 229h332v-281h-164l-133 -206l180 -256h139v-281h-362l-182 258l-154 -258h-338z" />
<glyph unicode="&#x446;" horiz-adv-x="1280" d="M53 743v281h518v-281h-71v-462h211v462h-66v281h516v-281h-90v-462h158v-457h-287l-20 176h-854v281h71v462h-86z" />
<glyph unicode="&#x447;" horiz-adv-x="1198" d="M39 743v281h491v-281h-55v-61q0 -40 23 -75q22 -34 69 -34q51 0 80 21q28 21 43 43v106h-78v281h531v-281h-92v-462h92v-281h-572v281h119v157l-47 -59q-33 -29 -82 -48q-51 -20 -119 -20q-60 0 -119 18q-60 19 -105 59q-46 42 -75 111q-28 68 -28 171v73h-76z" />
<glyph unicode="&#x448;" horiz-adv-x="1775" d="M53 0v281h90v462h-84v281h508v-281h-63v-462h201v462h-66v281h489v-281h-63v-462h201v462h-66v281h522v-281h-96v-462h88v-281h-1661z" />
<glyph unicode="&#x449;" horiz-adv-x="1835" d="M53 0v281h90v462h-84v281h508v-281h-63v-462h201v462h-66v281h489v-281h-63v-462h201v462h-66v281h522v-281h-96v-462h158v-457h-287l-20 176h-1424z" />
<glyph unicode="&#x44a;" horiz-adv-x="1232" d="M39 578v446h823v-281h-94v-141l70 31q16 2 24 2h25q60 0 122 -19q59 -18 103 -55q47 -39 71 -93q25 -56 25 -132q0 -64 -20 -121q-21 -59 -67 -107q-47 -48 -120 -78q-74 -30 -178 -30h-516v281h101v489h-93l-36 -192h-240zM768 256h49q45 0 62 30q16 29 16 54 q0 36 -26 59t-62 23h-39v-166z" />
<glyph unicode="&#x44b;" horiz-adv-x="1630" d="M53 743v281h580v-281h-92v-141l69 31q16 2 25 2h24q60 0 122 -19q60 -19 104 -55q45 -38 70 -93q26 -58 26 -132q0 -64 -20 -121q-21 -59 -67 -107t-120 -78t-178 -30h-537v281h121v462h-127zM541 256h49q44 0 61 30q17 31 17 54q0 36 -26 59t-62 23h-39v-166zM1044 743 v281h525v-281h-84v-462h92v-281h-526v281h73v462h-80z" />
<glyph unicode="&#x44c;" horiz-adv-x="1005" d="M53 743v281h580v-281h-92v-141l69 31q16 2 25 2h24q60 0 122 -19q60 -19 104 -55q45 -38 70 -93q26 -58 26 -132q0 -64 -20 -121q-21 -59 -67 -107t-120 -78t-178 -30h-537v281h121v462h-127zM541 260h49q44 0 61 28t17 52q0 36 -26 59t-62 23h-39v-162z" />
<glyph unicode="&#x44d;" horiz-adv-x="968" d="M41 98l102 254q45 -26 108 -55q59 -27 118 -27q76 0 120 39q43 39 60 101h-244v217h248q-11 60 -43 100q-33 41 -98 41h-54l-24 -98h-262l-21 286q107 56 202 71q94 15 173 15q121 0 217 -41t158 -112q64 -73 95 -167q32 -96 32 -206q0 -123 -30 -222q-30 -100 -91 -168 q-62 -69 -158 -107q-95 -37 -231 -37q-100 0 -162 14q-67 15 -110 33t-68 38q-32 26 -37 31z" />
<glyph unicode="&#x44e;" horiz-adv-x="1734" d="M53 0v281h103v462h-95v281h539v-281h-84v-116h164q11 89 47 170q37 83 117 151q72 56 160 75q86 19 182 19q102 0 183 -17q87 -18 159 -77q53 -43 89 -98q33 -51 52 -110q20 -64 24 -113q5 -63 5 -113t-5 -113q-4 -55 -23 -114q-20 -64 -51 -111q-36 -54 -91 -98 q-74 -60 -159 -78t-183 -18t-184 18q-84 18 -158 78q-87 70 -121 155t-45 177h-162v-129h82v-281h-545zM1044 510q0 -124 30 -187t112 -63t112 63q31 65 31 189q0 126 -31 191q-30 63 -112 63t-112 -64q-30 -63 -30 -192z" />
<glyph unicode="&#x44f;" horiz-adv-x="1161" d="M53 0v281h131l109 170q-74 17 -122 78q-50 64 -50 161q0 85 34 147t95 104q62 42 147 63q81 20 191 20h520v-281h-100v-462h98v-281h-531v281h68v182l-297 -463h-293zM483 680q0 -46 28 -76q27 -29 75 -29h57v213h-45q-55 0 -84 -28q-31 -29 -31 -80z" />
<glyph unicode="&#x451;" horiz-adv-x="1024" d="M41 514q0 85 20 172q21 93 76 171q55 79 153 132t251 53q202 0 320 -97t118 -302q0 -49 -6 -103l-17 -139h-555q6 -65 48 -104q40 -37 112 -37q58 0 129 20q74 21 164 68l92 -264l-62 -35q-41 -21 -80 -34q-47 -15 -109 -24q-63 -9 -148 -9q-158 0 -256 52 q-99 53 -154 131q-55 79 -76 172q-20 89 -20 177zM221 1137v256h266v-256h-266zM401 614h240v37q0 23 -2 37q-6 40 -33 62q-26 22 -65 22q-63 0 -101 -41t-39 -117zM596 1137v256h266v-256h-266z" />
<glyph unicode="&#x452;" d="M57 954v197h115v51h-115v260l418 72l57 -37v-346h410v-197h-410v-163l52 35q28 19 65 37q33 16 81 29q40 11 99 11q113 0 181 -43q70 -44 107 -117q38 -74 51 -172q14 -103 14 -206q0 -88 -11 -189q-11 -99 -43 -182q-34 -88 -97 -157t-171 -113h-291v210q73 1 122 26 q49 24 76 68t39 109q11 60 11 152v73q0 32 -5 84q-5 51 -19 89q-16 43 -41 68q-28 28 -72 28q-50 0 -91 -26q-40 -25 -57 -50v-274h115v-281h-584v281h109v673h-115z" />
<glyph unicode="&#x453;" horiz-adv-x="956" d="M55 0v281h121v462h-115v281h871v-446h-248l-37 192h-110v-489h112v-281h-594zM258 1126l231 277h338l-299 -277h-270z" />
<glyph unicode="&#x454;" horiz-adv-x="968" d="M41 516q0 110 32 206q31 94 95 167q62 71 158 112t217 41q79 0 173 -15q95 -15 202 -71l-21 -286h-262l-25 98h-53q-65 0 -98 -41q-32 -40 -43 -100h248v-217h-244q17 -63 59 -101q43 -39 121 -39q60 0 118 27t107 55l103 -254q-5 -5 -37 -31q-24 -19 -69 -38 q-43 -18 -110 -33q-62 -14 -161 -14q-137 0 -232 37t-157 107q-61 68 -91 168q-30 99 -30 222z" />
<glyph unicode="&#x455;" horiz-adv-x="960" d="M66 98v281h284v-111q25 -13 59 -20q37 -8 62 -8q47 0 67 20q22 22 23 47q-4 33 -50 49q-55 19 -108 35q-70 20 -133 45q-59 23 -105 61t-69 89q-24 52 -24 131q0 62 20 118t71 104q49 46 133 75q81 28 210 28q93 0 196 -22q102 -22 183 -53l-10 -305h-273l-18 112 q-8 2 -23.5 4.5t-21.5 3.5q-21 4 -43 4q-44 0 -66 -14q-24 -15 -24 -39q0 -29 37 -47q43 -20 95 -37l121 -41q67 -23 122 -59q59 -39 95 -92q37 -55 37 -138q0 -61 -21 -121t-73 -109q-51 -48 -135 -78q-81 -29 -209 -29q-131 0 -227 27t-182 89z" />
<glyph unicode="&#x456;" horiz-adv-x="692" d="M66 0v281h124v462h-120v263l440 38l41 -32v-731h102v-281h-587zM129 1288q0 39 17 69q18 32 47 56q29 25 68 39q38 14 83 14q96 0 157 -53q60 -53 60 -125q0 -77 -59 -129q-61 -53 -158 -53q-45 0 -83 14q-39 14 -68 39q-29 24 -47 59q-17 33 -17 70z" />
<glyph unicode="&#x457;" horiz-adv-x="692" d="M10 1137v256h266v-256h-266zM66 0v281h124v462h-120v263l440 38l41 -32v-731h102v-281h-587zM385 1137v256h266v-256h-266z" />
<glyph unicode="&#x458;" horiz-adv-x="634" d="M-123 -371l10 297h211l78 -147h14v964h-120v263l440 38l41 -32v-873q0 -176 -46 -286q-47 -113 -114 -175q-69 -64 -143 -86q-75 -22 -135 -22q-86 0 -143 19q-60 20 -93 40zM135 1288q0 38 18 69q19 33 46 56q29 25 68 39q38 14 83 14q96 0 157 -53q60 -53 60 -125 q0 -77 -59 -129q-61 -53 -158 -53q-45 0 -83 14q-39 14 -68 39q-27 23 -46 59q-18 34 -18 70z" />
<glyph unicode="&#x459;" horiz-adv-x="1593" d="M35 16l26 387h175l51 -114q14 11 23 42q10 34 14 63q5 35 6 67q2 44 2 53v229h-109v281h996v-281h-93v-141l70 31q16 2 25 2h24q60 0 122 -19q59 -18 103 -55q47 -39 71 -93q26 -58 26 -132q0 -55 -19 -115q-18 -58 -60 -104q-44 -48 -108 -79q-67 -32 -159 -38h-537v281 h82v462h-127v-194q0 -107 -16 -206q-16 -101 -60 -181q-44 -81 -120 -130q-77 -50 -199 -50q-60 0 -105 9q-48 10 -104 25zM1126 256h50q44 0 61 30q16 29 16 54q0 37 -25 59q-26 23 -63 23h-39v-166z" />
<glyph unicode="&#x45a;" horiz-adv-x="1601" d="M53 743v281h527v-281h-80v-114h276v114h-71v281h522v-281h-90v-141l69 31q16 2 25 2h24q60 0 122 -19q60 -19 104 -55q45 -38 70 -93q26 -58 26 -132q0 -61 -21 -121q-21 -61 -66 -107q-46 -48 -120 -78t-178 -30h-487v281h71v135h-276v-135h78v-281h-521v281h82v462h-86 zM1137 256h49q44 0 61 30q17 31 17 54q0 36 -26 59t-62 23h-39v-166z" />
<glyph unicode="&#x45b;" horiz-adv-x="1267" d="M45 952v201h115v49h-115v260l418 72l57 -37v-344h410v-201h-410v-178q61 69 140 98q84 31 153 31q160 0 238 -92q77 -90 77 -297v-233h103v-281h-463v465q0 15 -2 53q-1 27 -11 54q-9 25 -29 42t-54 17q-27 0 -49 -8q-17 -6 -38 -22q-14 -11 -32 -32q-20 -24 -33 -37 v-251h119v-281h-588v281h109v671h-115z" />
<glyph unicode="&#x45c;" horiz-adv-x="1302" d="M59 0v281h109v462h-102v281h536v-281h-74v-190l140 213q47 72 83 121q39 53 74 84q38 34 80 48q43 15 101 15q70 0 134 -8q54 -7 122 -20l-27 -375h-221l-23 141l-117 -176l218 -315h159v-281h-383l-340 496v-215h90v-281h-559zM432 1126l232 277h337l-299 -277h-270z " />
<glyph unicode="&#x45e;" horiz-adv-x="1234" d="M39 743v281h547v-281h-74l106 -319v-129h9l145 448h-102v281h530v-281h-100l-266 -821q-28 -83 -64 -146q-39 -69 -91 -115q-54 -48 -129 -75q-72 -26 -173 -26q-75 0 -131 14q-62 15 -113 33l8 340h246l53 -193l90 246h-124l-248 743h-119zM246 1343v60h262v-35 q0 -19 1 -31q1 -18 10 -35q9 -18 30 -30t59 -12h37q40 0 60 13q19 12 29 32q8 17 10 37q1 13 1 32v29h263v-60q0 -63 -27 -106q-27 -44 -76 -69q-47 -24 -117 -35q-71 -11 -149 -11h-33q-79 0 -145 12q-71 13 -114 37q-48 27 -75 69q-26 40 -26 103z" />
<glyph unicode="&#x45f;" horiz-adv-x="1196" d="M53 0v281h74v462h-70v281h500v-281h-70v-462h209v462h-67v281h510v-281h-82v-462h82v-281h-391v-174h-316v174h-379z" />
<glyph unicode="&#x490;" horiz-adv-x="1236" d="M61 1200v295h764l29 240h322v-535h-572v-905h184v-295h-725v295h152v905h-154z" />
<glyph unicode="&#x491;" horiz-adv-x="987" d="M55 0v281h121v462h-115v281h586l37 186h240v-446h-387v-483h112v-281h-594z" />
<glyph unicode="&#x2000;" horiz-adv-x="937" />
<glyph unicode="&#x2001;" horiz-adv-x="1874" />
<glyph unicode="&#x2002;" horiz-adv-x="937" />
<glyph unicode="&#x2003;" horiz-adv-x="1874" />
<glyph unicode="&#x2004;" horiz-adv-x="624" />
<glyph unicode="&#x2005;" horiz-adv-x="468" />
<glyph unicode="&#x2006;" horiz-adv-x="312" />
<glyph unicode="&#x2007;" horiz-adv-x="312" />
<glyph unicode="&#x2008;" horiz-adv-x="234" />
<glyph unicode="&#x2009;" horiz-adv-x="374" />
<glyph unicode="&#x200a;" horiz-adv-x="104" />
<glyph unicode="&#x2010;" horiz-adv-x="774" d="M90 502v291h594v-291h-594z" />
<glyph unicode="&#x2011;" horiz-adv-x="774" d="M90 502v291h594v-291h-594z" />
<glyph unicode="&#x2012;" horiz-adv-x="774" d="M90 502v291h594v-291h-594z" />
<glyph unicode="&#x2013;" horiz-adv-x="1038" d="M41 389v270h956v-270h-956z" />
<glyph unicode="&#x2014;" horiz-adv-x="1396" d="M41 389v270h1315v-270h-1315z" />
<glyph unicode="&#x2018;" horiz-adv-x="630" d="M135 846v282q0 75 18 135t58 106t111 77q73 32 174 49v-156q-114 -33 -115 -151h115v-342h-361z" />
<glyph unicode="&#x2019;" horiz-adv-x="630" d="M135 846v155q113 33 115 152h-115v342h361v-283q0 -74 -18 -134t-58 -106t-111 -77q-73 -32 -174 -49z" />
<glyph unicode="&#x201a;" horiz-adv-x="630" d="M135 0v342h361v-283q0 -74 -18 -134t-58 -106t-111 -77q-73 -32 -174 -49v155q113 33 115 152h-115z" />
<glyph unicode="&#x201c;" horiz-adv-x="1116" d="M135 846v282q0 75 18 135t58 106t111 77q73 32 174 49v-156q-114 -33 -115 -151h115v-342h-361zM621 846v282q0 78 17 135q18 60 58 106t111 77q73 32 174 49v-156q-114 -33 -115 -151h115v-342h-360z" />
<glyph unicode="&#x201d;" horiz-adv-x="1116" d="M135 846v155q113 33 115 152h-115v342h361v-283q0 -74 -18 -134t-58 -106t-111 -77q-73 -32 -174 -49zM621 846v155q112 33 114 152h-114v342h360v-283q0 -77 -17 -134q-18 -58 -59 -106q-41 -47 -110 -77q-73 -32 -174 -49z" />
<glyph unicode="&#x201e;" horiz-adv-x="1116" d="M135 0v342h361v-283q0 -74 -18 -134t-58 -106t-111 -77q-73 -32 -174 -49v155q113 33 115 152h-115zM621 0v342h360v-283q0 -77 -17 -134q-18 -58 -59 -106q-41 -47 -110 -77q-73 -32 -174 -49v155q112 33 114 152h-114z" />
<glyph unicode="&#x2026;" horiz-adv-x="1744" d="M135 0v342h361v-342h-361zM692 0v342h361v-342h-361zM1249 0v342h361v-342h-361z" />
<glyph unicode="&#x202f;" horiz-adv-x="374" />
<glyph unicode="&#x2039;" horiz-adv-x="663" d="M41 512l264 512h318l-265 -512l265 -512h-318z" />
<glyph unicode="&#x203a;" horiz-adv-x="663" d="M41 0l264 512l-264 512h317l265 -512l-265 -512h-317z" />
<glyph unicode="&#x205f;" horiz-adv-x="468" />
<glyph unicode="&#x20ac;" d="M66 494v188h57v47v10v49h-57v189h71q33 233 166 374q132 139 381 144q130 0 243 -31q109 -30 212 -104l-4 -336h-277l-22 133q-35 17 -68 26q-36 9 -76 5q-75 -6 -119 -62t-51 -149h334v-189h-338v-106h338v-188h-332q7 -91 54 -153q45 -60 127 -60q74 0 108 43 q35 44 41 108l322 2q0 -211 -128 -336t-364 -125q-128 0 -221 37q-95 38 -162 105q-65 65 -107 164q-40 96 -57 215h-71z" />
<glyph unicode="&#x2122;" horiz-adv-x="1966" d="M61 1149v346h750v-346h-195l-16 160h-43v-445h102v-186h-446v186h102v445h-43l-16 -160h-195zM852 678v186h109v445h-80v186h358l156 -342l83 171l81 171h346v-186h-86v-445h86v-186h-428v186h98v256l-170 -348h-62l-137 309l-10 68l-6 -285h92v-186h-430z" />
<glyph unicode="&#x25fc;" horiz-adv-x="1024" d="M0 0v1024h1024v-1024h-1024z" />
</font>
</defs>
</svg>
