<?xml version="1.0" encoding="utf-8"?>
<!-- Generator: Adobe Illustrator 22.1.0, SVG Export Plug-In . SVG Version: 6.00 Build 0)  -->
<!DOCTYPE svg PUBLIC "-//W3C//DTD SVG 1.1//EN" "http://www.w3.org/Graphics/SVG/1.1/DTD/svg11.dtd">
<svg version="1.1" id="Ebene_1" xmlns="http://www.w3.org/2000/svg" xmlns:xlink="http://www.w3.org/1999/xlink" x="0px" y="0px"
	 viewBox="0 0 6159.5 1597.1" style="enable-background:new 0 0 6159.5 1597.1;" xml:space="preserve">
<style type="text/css">
	.st0{fill:#3C3C3B;}
	.st1{fill:#1A1A1A;}
	.st2{fill:#2FAC66;}
	.st3{fill:#FFFFFF;}
</style>
<g>
	<path class="st0" d="M3069.3,393.8v855h-129V653.3l-132.7,479.9h-81.1l-132.7-479.9v595.5h-129v-855h162.2L2767,890.1l140.1-496.3
		H3069.3z"/>
	<path class="st0" d="M3704.8,1248.8h-139.2l-27.7-125.7h-229.7l-27.7,125.7h-139.2l213.8-855H3491L3704.8,1248.8z M3510.2,997.5
		l-87.1-395.6l-87.1,395.6H3510.2z"/>
	<path class="st0" d="M4216.9,1248.8h-142.9l-116.8-229.1c-1.2,0-2.4,0.1-3.5,0.1l-48.2,0v229h-129v-855l177.2,0
		c42.1,0.7,103.6,11,157.4,55.7c64.1,53.3,96.7,137.9,96.7,251.4c0,2,0,9.8,0,11.8c0,113.4-32.5,198-96.7,251.4
		c-9.4,7.8-19.1,14.6-28.8,20.4L4216.9,1248.8z M4080.2,706.8c0-2,0.1-3.9,0.1-5.9c0-117.6-43.2-178-128.4-179.8h-46.5v371.3h46.5
		c85.2-1.7,128.4-62.2,128.4-179.7C4080.3,710.7,4080.2,708.8,4080.2,706.8z"/>
	<path class="st0" d="M4585.6,709.6l162.9,539.8h-133l-114.8-380.2l-68.5,128.7v251.1h-129V973.7l-1.9-1l1.9-3.5V394h129v332.7
		l177-332.7h144.3L4585.6,709.6z"/>
	<path class="st0" d="M4941.8,1119.8h232.9l-32.3,129.1h-329.7V394h329.7l32.3,129.1h-232.9v206.1h179.1v129.1h-179.1V1119.8z"/>
	<path class="st0" d="M5722.5,522.8h-186v726h-129v-726h-186l32.3-129.1h436.5L5722.5,522.8z"/>
</g>
<g>
	<polygon class="st1" points="5894.2,130.9 2302.6,130.9 2291.7,258.1 5894.2,258.1 5894.2,1377.4 2195,1377.4 2184,1504.6 
		5894.2,1504.6 6021.4,1504.6 6021.4,130.9 	"/>
	<polygon class="st2" points="116.3,123.1 199.9,1486.6 2178.5,1568.8 2184,1504.6 2195,1377.4 2291.7,258.1 2302.6,130.9 
		2311,34.4 	"/>
</g>
<g>
	<path class="st3" d="M906.5,970.9c0,2.4-0.1,4.6-0.1,7c0,2.3,0.1,4.6,0.1,7c0,202.6-133.4,276.8-258.3,278.7l-48.8,0v0H468.1V394.4
		h131.2v0l43.3,0c33,1.4,81.3,9.3,123.8,38.5c38.3,26.3,83.2,77.9,81.4,174.6C849,669.5,831,712.8,807.8,743
		C865.5,786,906.5,858.7,906.5,970.9L906.5,970.9z M599.3,691h38.9c13.5-0.7,37.5-3.8,55.1-15.9c11.4-7.8,26.4-23.3,25.1-66.8
		c0-0.3,0-0.5,0-0.7c0-0.3,0-0.5,0-0.7c1.3-43.5-13.7-59-25.1-66.8c-17.7-12.1-41.6-15.2-55.1-15.9h-38.9V691z M777,977.8
		c0.1-2.3,0.1-4.6,0.1-7c0-36.4,0-147.1-130.4-149.3h-47.4v312.6h47.4C777,1131.9,777,1021.2,777,984.8
		C777,982.5,777,980.1,777,977.8z"/>
	<path class="st3" d="M1129.6,1133.1h325.8v129.4H991.7v-64.7c0-176.4,120.7-300.7,217.7-400.6c66.6-68.6,129.6-133.5,129.6-189.8
		c0-92.6-95.3-95.3-106.2-95.3c-10.7,0-104.7,2.6-104.7,92.9H998.7c0-67.6,27.1-127.3,76.3-168c42.3-35,98.3-54.3,157.8-54.3
		c59.8,0,116.2,19.5,158.8,54.9c49.5,41.2,76.8,101.5,76.8,169.8c0,108.8-80.7,192-166.2,280
		C1229.3,962.4,1154.4,1039.6,1129.6,1133.1z"/>
	<path class="st3" d="M2016.9,970.9c0,2.4-0.1,4.6-0.1,7c0,2.3,0.1,4.6,0.1,7c0,202.6-133.4,276.8-258.3,278.7l-48.8,0v0h-131.2
		V394.4h131.2v0l43.3,0c33,1.4,81.3,9.3,123.8,38.5c38.3,26.3,83.2,77.9,81.4,174.6c1.2,61.9-16.8,105.3-39.9,135.4
		C1976,786,2016.9,858.7,2016.9,970.9L2016.9,970.9z M1709.8,691h38.9c13.5-0.7,37.5-3.8,55.1-15.9c11.4-7.8,26.4-23.3,25.1-66.8
		c0-0.3,0-0.5,0-0.7c0-0.3,0-0.5,0-0.7c1.3-43.5-13.7-59-25.1-66.8c-17.7-12.1-41.6-15.2-55.1-15.9h-38.9V691z M1887.4,977.8
		c0.1-2.3,0.1-4.6,0.1-7c0-36.4,0-147.1-130.4-149.3h-47.4v312.6h47.4c130.4-2.2,130.4-112.9,130.4-149.3
		C1887.5,982.5,1887.5,980.1,1887.4,977.8z"/>
</g>
</svg>
